<?xml version="1.0" encoding="utf-8"?>
<!-- Generator: Adobe Illustrator 22.1.0, SVG Export Plug-In . SVG Version: 6.00 Build 0)  -->
<svg version="1.1" xmlns="http://www.w3.org/2000/svg" xmlns:xlink="http://www.w3.org/1999/xlink" x="0px" y="0px"
	 viewBox="0 0 1200 1200" style="enable-background:new 0 0 1200 1200;" xml:space="preserve">
<style type="text/css">
	.st0{display:none;}
	.st1{display:inline;opacity:0.4;fill:#C7F3FF;}
	.st2{fill:#FFFFFF;}
	.st3{opacity:0.4;fill:#52CCF7;}
	.st4{opacity:0.4;}
	.st5{fill:#52CCF7;}
</style>
<g id="BG" class="st0">
	<rect y="0" transform="matrix(-1.836970e-16 1 -1 -1.836970e-16 1200 -1.705303e-12)" class="st1" width="1200" height="1200"/>
</g>
<g id="Design">
	<g>
		<path class="st2" d="M274.8,670.3c0.7-10.5,5.9-19.4,8.1-29.4c1.5-6.7,2.5-13.9,6.3-19.6c-12.5-3-26.5,0.4-36,9.2
			c-5.5-19.4-26.7-33-46.6-30c-20,3-36.1,22.4-35.6,42.5c-15.4-12.2-39.1-12.4-54.6-0.4c-13.2,10.1-19.6,28.3-16.2,44.5
			c3.4,16.7,22.1,12.3,35.6,12.7l60.8,1.9c31.2,1,62.4,1.9,93.6,2.9C280,696.4,273.9,683.7,274.8,670.3z"/>
		<path class="st3" d="M728.5,225c87.2,35.1,150.9,122.7,157.5,216.5c2,28.4-1.2,58-15.6,82.5c-14.4,24.5-41.9,42.6-70.2,40
			c-22.1-2-41.2-15.7-59.1-29c-70.1-51.8-140.1-103.6-210.2-155.3c-18.4-13.6-37.1-27.5-50.2-46.2c-10.8-15.4-22.5-44.3-12.5-62.8
			c8.5-15.8,35.7-28,51-35.7c41-20.5,87.5-29.9,133.2-27C678.5,209.6,704.3,215.2,728.5,225z"/>
		<g class="st4">
			<path class="st5" d="M480.3,898h-7.8l-0.2-24.1c-3.5-71.4-34.5-101.2-52.6-112.7c-21.9-13.8-27.5-15-44.5-18.7
				c-4.7-1-10.6-2.3-17.8-4.1c-3.2-0.8-6.5-1.5-9.7-2.3c-13.7-3.2-27.9-6.5-41-12.7c-19-9.1-32.2-23.7-36.2-40
				c-4.1-16.9,2.9-34.4,9.1-49.9c0.9-2.2,1.8-4.5,2.6-6.7c2-5.3,1.4-11.5-1.7-16.3c-0.8-1.3-1.8-2.5-2.9-3.7
				c-1.5-1.8-3.1-3.8-4.4-6.1c-3.2-5.9-3.4-13.4-0.3-19.4c1.5-3,4.2-5.9,7.4-8c-2.1-1.6-3.9-3.7-5.2-6.1c-3.8-7.2-3.2-14.4,1.5-18.4
				c7.8-6.5,14.4-12.6,16.4-20.4c0.7-2.7,0.7-4.8,0-7.6c-7.5-5-15.8-10.8-21.7-18.7c-7.3-9.7-9.6-21.6-6-31c3.6-9.4,12-15.3,18.8-20
				c5.6-3.9,11.4-7.6,17-11.2c15.6-10,30.4-19.4,41.6-33.4c8.8-11.1,13.6-24.4,18.7-38.6c2.1-5.7,4.2-11.7,6.6-17.4
				c12.1-28.5,31.5-52.8,50.3-76.3c21.1-26.4,60.6-51.2,72.2-58.2c59.5-35.8,107.8-37,160.3-34.9c60.3,2.4,118.4,21.7,163.6,54.4
				c31.7,22.9,58.5,53.8,77.7,89.3c19.2,35.5,30.2,74.9,32,114c1.7,39.1-5.7,79.3-21.6,116.4c-15.9,37.1-39.9,70.2-69.4,95.9
				c-25.3,22-40.5,37.2-62.7,62.5c-39,44.5-47.9,112.6-21.5,165.6l-7.2,3.6c-27.8-55.8-18.4-127.5,22.7-174.4
				c22.5-25.6,37.9-41,63.5-63.3c28.6-24.9,51.9-57,67.3-93c15.4-36,22.7-75,21-112.9c-1.7-37.9-12.4-76.1-31-110.6
				c-18.6-34.5-44.6-64.4-75.4-86.6c-43.9-31.7-100.4-50.5-159.2-52.9c-62-2.5-103.2,2.1-155.9,33.8c-11.3,6.8-49.8,31-70.1,56.3
				c-18.4,23.1-37.5,46.9-49.2,74.4c-2.3,5.5-4.4,11.3-6.5,17c-5.1,14.1-10.4,28.7-20,40.8c-12,15-28,25.2-43.5,35.1
				c-5.5,3.5-11.3,7.2-16.7,11c-7.2,5.1-13.4,9.8-16,16.4c-3.2,8.2,0.4,17.5,4.9,23.4c5.5,7.3,13.4,12.6,21,17.7
				c0.8,0.5,1.3,1.3,1.6,2.2c1.4,4.8,1.5,8.7,0.4,13.2c-2.8,11-12.2,18.9-19,24.6c-2,1.6-1.2,5.6,0.4,8.5c1.7,3.2,5.2,5.5,8.8,5.9
				c2,0.2,3.6,1.9,3.6,3.9c0,2-1.5,3.8-3.5,4c-4.2,0.6-9.2,4.1-11,7.7c-1.9,3.7-1.8,8.4,0.2,12c0.9,1.6,2.2,3.1,3.5,4.8
				c1.2,1.4,2.4,2.8,3.5,4.5c4.5,6.9,5.4,15.9,2.5,23.5c-0.9,2.2-1.8,4.5-2.7,6.8c-6,15-12.3,30.6-8.8,45c3.4,14,15,26.6,31.9,34.7
				c12.3,5.9,26,9.1,39.3,12.1c3.3,0.8,6.6,1.5,9.8,2.3c7.1,1.7,12.7,3,17.6,4c17.5,3.8,24,5.2,47,19.7c20.9,13.2,36.4,34.2,46,62.5
				c5.7,16.9,9.3,36.5,10.3,56.7c0,0.1,0,0.1,0,0.2L480.3,898z"/>
		</g>
		<g class="st4">
			<path class="st5" d="M458.2,475.3c-9.2,0-18.3-1.9-26.8-5.7c-16.5-7.4-30.6-21.9-38.5-39.8c-0.9-2,0-4.4,2-5.3c2-0.9,4.4,0,5.3,2
				c7.1,16.1,19.6,29.2,34.4,35.7c14.6,6.5,31.5,6.7,46.2,0.4c2-0.9,4.4,0.1,5.2,2.1c0.9,2-0.1,4.4-2.1,5.2
				C475.7,473.5,467,475.3,458.2,475.3z"/>
		</g>
		<g class="st4">
			<path class="st5" d="M748.2,970.6c-31.4,0-57-25.6-57-57c0-31.4,25.6-57,57-57s57,25.6,57,57C805.3,945,779.7,970.6,748.2,970.6z
				 M748.2,864.6c-27,0-49,22-49,49c0,27,22,49,49,49c27,0,49-22,49-49C797.3,886.6,775.3,864.6,748.2,864.6z"/>
		</g>
		<g class="st4">
			<path class="st5" d="M748.2,950.3c-20.2,0-36.7-16.5-36.7-36.7c0-20.2,16.5-36.7,36.7-36.7c20.2,0,36.7,16.5,36.7,36.7
				C784.9,933.8,768.5,950.3,748.2,950.3z M748.2,884.9c-15.8,0-28.7,12.9-28.7,28.7c0,15.8,12.9,28.7,28.7,28.7
				c15.8,0,28.7-12.9,28.7-28.7C776.9,897.8,764.1,884.9,748.2,884.9z"/>
		</g>
		<g class="st4">
			
				<ellipse transform="matrix(0.7071 -0.7071 0.7071 0.7071 -426.8529 796.6731)" class="st5" cx="748.2" cy="913.6" rx="26" ry="26"/>
		</g>
		<path class="st3" d="M573.8,542.1c-4,39.2-14.3,78.6-36.8,110.9c-22.5,32.3-58.7,56.6-98.1,57.9c35,37.6,82.6,61.7,131.9,76.2
			c49.3,14.5,100.7,20.1,151.8,25.7c44.5,4.8,92,9.2,132-10.9c33.8-17,57.6-49.7,71.4-85c13.8-35.2,18.6-73.3,22.8-110.9
			c8.5-75.2,15.2-152.7-5.8-225.4c-23.7-82-83.3-152.8-160-190.1s-169.3-40.4-248.3-8.4c-18.8,7.6-65.5,26.4-70.9,49
			c-4.2,17.3,24.1,27.6,34.4,37.2c41.9,38.6,62.8,113.3,72,167.5C576.1,470.9,577.4,506.7,573.8,542.1z"/>
		<path class="st2" d="M135.9,231.8c-8.1,0.1-16.6,0.2-23.8-3.7c-9.2-5-14.2-16.4-12.5-26.7s9.6-19.3,19.4-23
			c9.8-3.7,21.2-2.5,30.5,2.4c-1.9-12.2,3.5-25.3,13.5-32.7c10-7.4,24-8.7,35.2-3.4c11.2,5.3,19,17.1,19.5,29.5
			c10.3-4.3,22.2-5.2,32.8-1.5c10.6,3.7,19.5,12.3,22.6,23.1c3,10.8-0.5,23.4-9.3,30.2c-7.8,6.1-18.1,6.9-27.6,6.5
			c-10-0.5-19.1-1.9-29.3-1.8C183.2,231.1,159.5,231.4,135.9,231.8z"/>
		<g class="st4">
			<path class="st5" d="M338.5,366.1l-4.8-1.5c0.6-1.9,1.2-3.9,1.9-5.8l4.7,1.6C339.7,362.3,339.1,364.2,338.5,366.1z M342.4,354.8
				l-4.7-1.7c0.7-1.9,1.4-3.8,2.2-5.7l4.6,1.8C343.8,351.1,343,353,342.4,354.8z M346.8,343.8l-4.6-2c0.8-1.8,1.6-3.7,2.4-5.5
				l4.6,2.1C348.3,340.1,347.5,342,346.8,343.8z M351.7,333l-4.5-2.2c0.9-1.8,1.8-3.6,2.7-5.4l4.5,2.3
				C353.4,329.4,352.5,331.2,351.7,333z M357.1,322.4l-4.4-2.4c0.9-1.8,1.9-3.5,2.9-5.3l4.3,2.5C359,318.9,358,320.6,357.1,322.4z
				 M362.9,312l-4.3-2.6c1-1.7,2.1-3.4,3.2-5.2l4.2,2.7C365,308.7,363.9,310.4,362.9,312z M369.3,302l-4.2-2.8
				c1.1-1.7,2.3-3.4,3.4-5l4.1,2.9C371.5,298.7,370.4,300.3,369.3,302z M376.1,292.2l-4-3c1.2-1.6,2.4-3.3,3.6-4.8l4,3
				C378.4,289.1,377.2,290.7,376.1,292.2z M383.3,282.8l-3.9-3.1c1.3-1.6,2.6-3.1,3.8-4.7l3.8,3.2
				C385.8,279.7,384.5,281.3,383.3,282.8z M391,273.7l-3.8-3.3c1.3-1.5,2.7-3,4.1-4.5l3.7,3.4C393.6,270.8,392.3,272.2,391,273.7z
				 M399,265l-3.6-3.5c1.4-1.4,2.8-2.9,4.3-4.3l3.5,3.6C401.8,262.1,400.4,263.6,399,265z M407.5,256.6L404,253
				c1.5-1.4,3-2.8,4.5-4.1l3.3,3.7C410.4,253.9,408.9,255.3,407.5,256.6z M416.3,248.7l-3.3-3.8c1.5-1.3,3.1-2.6,4.6-3.9l3.2,3.9
				C419.3,246.1,417.8,247.4,416.3,248.7z M425.5,241.1l-3.1-3.9c1.6-1.3,3.2-2.5,4.8-3.7l3,4C428.6,238.7,427.1,239.9,425.5,241.1z
				 M435,234.1l-2.9-4.1c1.6-1.2,3.3-2.3,5-3.4l2.8,4.1C438.3,231.8,436.6,232.9,435,234.1z"/>
		</g>
		<g class="st4">
			<path class="st5" d="M705.8,822.7c-0.4-2-0.7-4-0.9-6.1l5-0.6c0.2,1.9,0.5,3.9,0.9,5.8L705.8,822.7z M704.3,810.6
				c-0.1-2-0.2-4.1-0.3-6.1l5-0.1c0,2,0.1,3.9,0.3,5.9L704.3,810.6z M709,798.5l-5-0.2c0.1-2,0.2-4.1,0.3-6.1l5,0.4
				C709.2,794.6,709.1,796.5,709,798.5z M710,786.7l-5-0.6c0.3-2,0.6-4,0.9-6l4.9,0.9C710.5,782.9,710.2,784.8,710,786.7z
				 M712,775.1l-4.9-1.1c0.4-2,0.9-4,1.4-5.9l4.8,1.3C712.9,771.3,712.4,773.2,712,775.1z M715,763.7l-4.8-1.5
				c0.6-1.9,1.2-3.9,1.9-5.8l4.7,1.7C716.2,760,715.6,761.9,715,763.7z M718.9,752.6l-4.7-1.8c0.7-1.9,1.5-3.8,2.3-5.6l4.6,2
				C720.4,749,719.6,750.8,718.9,752.6z M723.6,741.8l-4.5-2.2c0.9-1.8,1.8-3.6,2.7-5.4l4.4,2.3C725.4,738.2,724.5,740,723.6,741.8z
				 M729.1,731.3l-4.3-2.5c1-1.7,2-3.5,3.1-5.2l4.3,2.6C731.1,727.9,730.1,729.6,729.1,731.3z M735.3,721.2l-4.2-2.7
				c1.1-1.7,2.2-3.4,3.4-5l4.1,2.8C737.5,717.9,736.3,719.5,735.3,721.2z M742,711.4l-4-2.9c1.2-1.6,2.4-3.2,3.6-4.9l4,3
				C744.3,708.2,743.1,709.8,742,711.4z M749.2,702l-3.9-3.1c1.3-1.6,2.5-3.1,3.8-4.7l3.8,3.2C751.7,698.9,750.5,700.4,749.2,702z
				 M756.9,692.8l-3.8-3.3c1.3-1.5,2.7-3,4-4.5l3.7,3.4C759.5,689.9,758.2,691.3,756.9,692.8z M764.9,684l-3.6-3.4
				c1.4-1.5,2.8-2.9,4.2-4.4l3.6,3.5C767.6,681.1,766.2,682.6,764.9,684z M773.1,675.4l-3.5-3.5c1.4-1.4,2.8-2.8,4.3-4.3l3.5,3.6
				C776,672.6,774.5,674,773.1,675.4z M781.7,667.1l-3.5-3.6l1.1-1c1.1-1.1,2.2-2.1,3.3-3.1l3.4,3.6c-1.1,1-2.2,2.1-3.3,3.1
				L781.7,667.1z M790.4,658.9l-3.4-3.7c1.5-1.4,2.9-2.7,4.4-4.1l3.4,3.7C793.3,656.1,791.8,657.5,790.4,658.9z M799.2,650.8
				l-3.4-3.7c1.5-1.3,3-2.7,4.5-4l3.3,3.7C802.1,648.1,800.7,649.4,799.2,650.8z M808.1,642.7l-3.3-3.7l4.5-4l3.3,3.7L808.1,642.7z
				 M817,634.7l-3.3-3.7c1.5-1.3,3-2.7,4.4-4l3.4,3.7C820,632,818.5,633.4,817,634.7z M825.9,626.6l-3.4-3.7c1.5-1.3,2.9-2.7,4.4-4
				l3.4,3.7C828.9,623.9,827.4,625.3,825.9,626.6z M834.7,618.5l-3.4-3.6c1.5-1.4,2.9-2.7,4.3-4.1l3.5,3.6
				C837.7,615.7,836.2,617.1,834.7,618.5z M843.5,610.1l-3.5-3.6c1.4-1.4,2.8-2.8,4.3-4.2l3.5,3.5
				C846.3,607.3,844.9,608.7,843.5,610.1z"/>
		</g>
		<g class="st4">
			<path class="st5" d="M451.1,849.6c-0.5-1.9-0.9-3.9-1.4-5.8l4.8-1.2c0.5,1.9,1,3.9,1.4,5.9L451.1,849.6z M448.1,838
				c-0.5-2-1.1-3.9-1.6-5.7l4.8-1.4c0.6,1.9,1.1,3.8,1.6,5.8L448.1,838z M444.7,826.6c-0.6-1.9-1.3-3.8-2-5.6l4.7-1.7
				c0.7,1.8,1.4,3.8,2,5.8L444.7,826.6z M440.6,815.6c-0.8-1.8-1.6-3.6-2.4-5.4l4.5-2.2c0.9,1.8,1.7,3.7,2.5,5.6L440.6,815.6z
				 M435.5,805c-1-1.7-2-3.4-3-5l4.2-2.7c1.1,1.7,2.1,3.5,3.2,5.3L435.5,805z M429.2,795.2c-1.2-1.6-2.4-3.1-3.6-4.5l3.8-3.3
				c1.3,1.5,2.6,3.1,3.9,4.8L429.2,795.2z M421.6,786.5c-1.4-1.3-2.8-2.6-4.3-3.8l3.2-3.9c1.6,1.3,3.2,2.7,4.6,4.1L421.6,786.5z
				 M412.6,779.1c-1.5-1.1-3.2-2.2-4.9-3.2l2.6-4.3c1.8,1.1,3.5,2.2,5.2,3.4L412.6,779.1z M402.6,773.1c-1.7-0.9-3.5-1.8-5.3-2.6
				l2.1-4.5c1.9,0.9,3.7,1.8,5.5,2.7L402.6,773.1z M392,768.1c-1.7-0.7-3.6-1.4-5.5-2.2l1.7-4.7c2,0.7,3.9,1.5,5.7,2.2L392,768.1z
				 M380.9,764c-1.9-0.6-3.8-1.3-5.7-1.9l1.5-4.8c1.9,0.6,3.8,1.3,5.7,1.9L380.9,764z M369.5,760.3c-1.9-0.6-3.8-1.2-5.7-1.7
				l1.4-4.8c1.9,0.6,3.8,1.2,5.8,1.8L369.5,760.3z"/>
		</g>
		<path class="st2" d="M914.1,836.5c12-2.1,24.9,3.1,32.1,12.9c0.1-16.7,13.6-32.4,30.1-34.9c7.3-1.1,15.2,0.2,21.2,4.7
			c5.9,4.5,9.5,12.3,8,19.5c6-4.2,12.7-7.6,19.9-8.4c7.2-0.9,15,1,20.2,6.1c5.2,5.1,7.1,13.7,3.6,20c7.5-4.1,15.6-6.9,24-8.3
			c7.8-1.3,16.3-1.3,23,2.9s10.3,13.8,6,20.4c5.7-0.6,11.7-1.2,16.8,1.2c5.2,2.4,8.8,9,5.9,14c-2.7,4.7-9.2,5.3-14.6,5.3
			c-18.9,0-37.8,0-56.7-0.1c-46.9,0-93.7-0.1-140.6-0.1c-5.4,0-11.1,0-16.1-2.3c-5.6-2.5-9.9-7.7-11.2-13.7
			C882,858.9,897.9,839.4,914.1,836.5z"/>
		<path class="st2" d="M1125.9,195.8c-1.1-10.9-11.6-19.1-22.4-20.5c-10.8-1.4-21.7,2.6-31.1,8.1c-0.3-14.4-9.4-28.3-22.5-34.3
			c-13.1-6-29.6-4-40.7,5.2c-1.9-13.8-13.8-25.3-27.5-28c-13.7-2.7-28.4,2.6-38.1,12.6c-9.8,9.9-14.9,24-15.3,37.9
			c-10.3-15.9-32.2-23.1-50-16.5c-14.6,5.4-24.4,19.2-27,34.3c-3,17.8,6.6,25.8,24.4,26.1c66.7,1.5,133.4,3,200,4.5
			c11,0.2,22.5,0.4,32.6-3.9C1118.4,216.8,1127,206.7,1125.9,195.8z"/>
		<g>
			<path class="st2" d="M762.3,909.2h-9.7v-9.7c0-0.9-0.7-1.5-1.5-1.5h-5.6c-0.9,0-1.5,0.7-1.5,1.5v9.7h-9.7c-0.9,0-1.5,0.7-1.5,1.5
				v5.6c0,0.9,0.7,1.5,1.5,1.5h9.7v9.7c0,0.9,0.7,1.5,1.5,1.5h5.6c0.9,0,1.5-0.7,1.5-1.5v-9.7h9.7c0.9,0,1.5-0.7,1.5-1.5v-5.6
				C763.8,909.9,763.1,909.2,762.3,909.2z"/>
		</g>
		<g>
			<g>
				<path class="st2" d="M854,428.5c-3.4-4.6-7.5-8.6-12.2-11.9c11.1-9.6,16.4-25.5,13.7-40.5c-2.6-14.3-12.6-27.6-26-34.6
					c-10.9-5.7-23.8-7.5-36.4-5.2c5.5-9.5,7.5-21.4,5.3-32.9c-2.4-12.2-9.4-24-19.7-33.1c-9.1-8-20.6-14-34.1-17.7
					c-14.7-4.1-29.3-4.6-42.1-1.6c-14.5,3.4-27.3,11.6-35.2,22.5c-1.9-0.5-3.8-0.9-5.7-1.1c0.2-7.3-2.4-14.9-7.5-21.3
					c-4.6-5.8-11.2-10.7-19.6-14.5c-12.4-5.6-25.8-7.5-38-5.4c-13.4,2.3-25.4,9.6-32.7,20c-7.5,10.5-9.9,24.1-6.4,35.8
					c-11.2-6.6-25.3-8.1-37.6-3.7c-13.3,4.7-23.9,16-27.6,29.4c-3.7,13.6-0.1,28.9,9.3,39.2c1,1,2,2,3.1,3
					c-11.6,9.4-17.8,25.3-15.5,40.1c2.4,15.2,13.7,28.9,28.2,34c0.5,0.2,1,0.3,1.5,0.5c6.8,2,15.5,2.3,22-2.3
					c-2.8,11.1,0.1,23.6,7.8,32.9c5.4,6.5,13.1,11.4,21.6,14c3.8,1.2,7.9,1.8,12,2c8.6,0.4,16.6-1.5,23-5.4c3.7-2.2,6.9-5.2,9.4-8.7
					c0.1,10.2,3.3,20.1,9.2,27.9c5.5,7.3,13.1,12.6,21.5,15.1c3.5,1.1,7.1,1.6,10.8,1.6c0.1,0.3,0.3,0.6,0.6,0.8
					c19.1,14.3,32.3,36.9,35.2,60.6l0.1,1c0.4,3.6,0.9,7.7,3.3,11c1.6,2.3,4,3.9,6.7,4.7c2.9,0.9,6,0.8,8.9-0.3
					c3.9-1.6,7.3-4.9,10.2-10.3c0.7-1.2,1.3-2.5,1.9-3.7c1.2-2.4,2.3-4.6,3.8-6.7c6.3,5.8,13.6,9.1,19.5,10.8
					c0.7,0.2,1.3,0.4,1.9,0.5c9.1,2.4,17.9,2.5,25.6,0.2c9.5-2.8,17.7-9.3,22.6-17.9c4.9-8.6,6.3-19,3.9-28.5c0-0.2-0.1-0.3-0.2-0.4
					c0.5-0.1,1.1-0.3,1.6-0.4c9.3-2.9,16.3-11.5,17.6-21.4c0.1-0.4,0.1-0.9,0.1-1.3c0.2,0.1,0.4,0.2,0.6,0.3c0.1,0,0.2,0.1,0.3,0.1
					c7.8,1.1,16.4-1,23.5-5.7c6.4-4.3,11.7-10.7,15.3-18.5C867.1,464.4,865,443.6,854,428.5z M719.4,568.6c-0.6,1.2-1.2,2.4-1.8,3.6
					c-2.5,4.5-5.2,7.3-8.2,8.5c-3.8,1.5-8.6,0.2-10.9-2.9c-1.8-2.5-2.1-5.7-2.5-9.1l-0.1-1c-2.9-23.7-15.6-46.4-34.2-61.4
					c8.6-1.3,16.5-5.7,22-12.1c-0.1,4.1,0.6,8.3,2,12.3c3.2,9,10.3,16.9,19.4,21.8c2.5,1.3,5,2.3,7.5,3.1c1.1,0.3,2.3,0.6,3.4,0.8
					c0,0.1-0.1,0.1-0.1,0.2c-2,9.4,0.8,19.8,7.6,27.9c0.2,0.2,0.3,0.4,0.5,0.5C722.1,563.3,720.8,566,719.4,568.6z M855.6,479.8
					c-3.3,7.1-8.1,12.9-13.9,16.8c-6.3,4.2-13.8,6-20.7,5.1c-0.5-0.1-1,0.1-1.4,0.3c-0.3-8-4.1-15.9-10.5-21.3c0,0-0.1,0-0.1-0.1
					c5.5-6.3,7.9-15.4,5.7-23.4c-0.3-1.1-1.4-1.7-2.4-1.4c-1.1,0.3-1.7,1.4-1.4,2.4c2.2,8.4-1.4,18.1-8.5,23.1
					c-7.2,4.9-17.5,4.8-24.6-0.2c-0.9-0.6-2.1-0.4-2.8,0.5c-0.6,0.9-0.4,2.1,0.5,2.8c2.2,1.6,4.6,2.7,7.2,3.5
					c7.3,2.2,15.7,1.1,22-3.2c0.6-0.4,1.1-0.8,1.6-1.2c0.1,0.1,0.2,0.3,0.3,0.4c6.5,5.5,10,14.3,8.9,22.3
					c-1.1,8.3-7.2,15.8-14.8,18.1c-7.9,2.4-17.2-0.8-21.5-7.5c-0.6-0.9-1.8-1.2-2.8-0.6c-0.9,0.6-1.2,1.8-0.6,2.8
					c2.8,4.4,7.4,7.5,12.5,9.1c2.7,0.8,5.5,1.1,8.2,1c-0.1,0.3-0.1,0.6,0,0.9c2.2,8.6,0.9,17.9-3.5,25.6c-4.4,7.7-11.8,13.5-20.3,16
					c-7,2.1-15.1,2-23.5-0.2c-6.6-1.7-16-5.5-22.7-13.5c-5.9-7-8.5-16.4-6.8-24.4c0-0.2,0-0.3,0-0.5c5.5,0.5,10.8-0.2,15.5-2.4
					c10.3-4.7,16.3-16.6,13.5-26.5c-0.3-1.1-1.4-1.7-2.5-1.4c-1.1,0.3-1.7,1.4-1.4,2.5c2.3,8.1-2.8,17.9-11.3,21.8
					c-7.7,3.5-17.7,2.8-26.7-2c-8.2-4.4-14.6-11.5-17.5-19.6c-3.1-8.6-2.1-18.3,2.5-25.5c0.6-0.9,0.3-2.2-0.6-2.8
					c-0.9-0.6-2.2-0.3-2.8,0.6c-1.3,1.9-2.3,4.1-3,6.3c-0.1,0.1-0.1,0.2-0.2,0.3c-4.4,10.5-15.7,18.2-27.6,18.7
					c-11.6,0.5-23.3-5.3-30.6-15.1c-6.9-9.2-9.8-21.9-7.8-34c0.1-0.4,0-0.8-0.2-1.1c0.1-0.3,0.2-0.6,0.2-0.9
					c0.2-1.1-0.5-2.1-1.6-2.4c-1.1-0.2-2.1,0.5-2.4,1.6c-1.3,6.5-5.9,12.7-12.2,16.5c-5.8,3.5-13,5.2-20.8,4.8
					c-12.1-0.5-23.6-5.9-30.7-14.5c-7.2-8.7-9.7-20.6-6.6-30.8c1.9,1,3.8,1.9,5.9,2.5c0,0,0.1,0,0.1,0c6.6,2,14.3,1.8,22.3-0.4
					c1.1-0.3,1.7-1.4,1.4-2.5c-0.3-1.1-1.4-1.7-2.5-1.4c-7.2,2-14.2,2.2-20.1,0.4c-6.7-2-12.2-6.6-14.6-12.3
					c-2.6-6.1-1.3-13.5,3-17.7c0.8-0.8,0.8-2,0-2.8c-0.8-0.8-2-0.8-2.8,0c-5.5,5.4-7.1,14.5-3.9,22.1c1.3,3,3.3,5.8,5.8,8.1
					c-5.7,5.2-14.6,4.6-21.1,2.3c-13.2-4.7-23.5-17.1-25.6-30.9c-2.1-13.7,3.8-28.4,14.7-36.9c3.6,2.6,7.7,4.5,11.9,5.8
					c6.5,2,13.5,2.3,20.1,0.8c1.1-0.2,1.7-1.3,1.5-2.4c-0.2-1.1-1.3-1.7-2.4-1.5c-12.3,2.8-25.8-1.4-34.5-10.9
					c-8.5-9.2-11.8-23.1-8.4-35.4c3.3-12.2,12.9-22.4,25-26.7c12.1-4.3,26.1-2.4,36.7,5c0.9,0.6,2.2,0.4,2.8-0.5
					c0.3-0.5,0.4-1.1,0.3-1.6c0.8-0.5,1.2-1.4,0.9-2.4c-3.9-10.9-1.9-24,5.3-34.1c6.8-9.5,17.7-16.2,30.1-18.3
					c11.4-2,24-0.2,35.6,5.1c7.8,3.5,13.9,8,18.1,13.3c4.5,5.7,6.8,12.4,6.6,18.7c-2.3,0.1-4.6,0.5-6.8,1.2
					c-8.8,2.8-15.9,10-18.6,18.8c-0.3,1.1,0.3,2.2,1.3,2.5c0,0,0,0,0,0c1.1,0.3,2.2-0.3,2.5-1.3c2.3-7.6,8.4-13.8,16-16.1
					c7.5-2.4,16.1-0.9,22.3,4c6.2,4.9,9.8,12.8,9.4,20.7c-0.1,1.1,0.8,2,1.9,2.1c1.1,0.1,2-0.8,2.1-1.9c0.5-9.2-3.6-18.4-10.9-24.1
					c-1.7-1.3-3.6-2.4-5.5-3.3c7.4-9.7,19-17,32.2-20.1c12.2-2.8,26.1-2.3,40.2,1.6c12.9,3.6,23.9,9.3,32.5,16.9
					c9.6,8.5,16.2,19.5,18.4,30.8c2.3,12-0.3,24.4-7,33.4c-0.4,0.1-0.8,0.2-1.2,0.3c-9.5-9.1-24.6-11.2-36.2-5.1
					c-1,0.5-1.4,1.7-0.8,2.7c0.5,1,1.7,1.4,2.7,0.8c10.1-5.3,23.7-3.3,31.8,4.7c8.1,8,10.3,21.7,5.1,31.8c-0.5,1-0.1,2.2,0.9,2.7
					c0.1,0.1,0.2,0.1,0.3,0.1c0.9,0.3,1.9-0.1,2.4-1c5.4-10.5,4-23.9-3.1-33.3c0.2-0.1,0.3-0.2,0.5-0.3c13-3.4,26.7-2,37.9,3.9
					c12.4,6.5,21.6,18.7,24,31.8c2.5,13.8-2.5,28.3-12.7,37c-0.2,0.2-0.3,0.4-0.5,0.6c-9.9-5.9-21.7-8.5-33.2-7.1
					c-1.1,0.1-1.9,1.1-1.7,2.2c0.1,1.1,1.1,1.9,2.2,1.7c16.9-2.1,35,5.8,45.1,19.6C860.8,444.6,862.8,464.3,855.6,479.8z"/>
				<path class="st2" d="M643.6,343.2c3.5,7.6,2.2,17.5-3.2,23.9c-0.7,0.8-0.6,2.1,0.2,2.8c0.2,0.2,0.5,0.3,0.7,0.4
					c0.7,0.2,1.6,0,2.1-0.6c6.5-7.7,8-19,3.8-28.2c-4.2-9.1-13.8-15.3-23.9-15.4c-10.1-0.1-19.7,6-24.1,15.1c-0.5,1,0,2.2,0.9,2.7
					c1,0.5,2.2,0,2.7-0.9c3.6-7.6,12-12.9,20.4-12.8C631.7,330.2,640,335.6,643.6,343.2z"/>
				<path class="st2" d="M748.6,412.3c-1.1-0.2-2.1,0.5-2.3,1.6c-0.2,1.1,0.5,2.1,1.6,2.3c11.1,1.9,20.9,10.2,24.6,20.6
					c3.7,10.7,1,23.2-6.9,31c-8,8-20.7,10.5-30.8,6.2c-1-0.4-2.2,0-2.6,1.1c-0.4,1,0,2.2,1.1,2.6c1,0.4,2,0.8,3.1,1.1
					c11,3.3,23.9,0.2,32.2-8.1c8.9-8.9,12.1-23.1,7.8-35.2C772.1,423.6,761.3,414.5,748.6,412.3z"/>
				<g>
					<path class="st2" d="M732.4,447.3c-0.5-1-1.7-1.3-2.7-0.8c-7.6,4.2-17.3,4.5-25.2,0.8c-7.9-3.6-13.9-11.2-15.7-19.7
						c-1.6-7.8,0.3-16.3,5.2-22.7c3.4,3.1,7.5,5.5,12,6.8c2.3,0.7,4.8,1.1,7.2,1.2c8.7,0.4,19.2-4.3,21.6-13.7
						c0.3-1.1-0.4-2.2-1.4-2.4c-1.1-0.3-2.2,0.4-2.4,1.4c-1.9,7.3-10.5,11-17.6,10.7c-8.4-0.4-16.5-5-21-12.2
						c-4.5-7.2-5.2-16.4-1.8-24.2c0.4-1,0-2.2-1-2.6c-1-0.4-2.2,0-2.6,1c-3.9,8.9-3.1,19.6,2.1,27.9c0.7,1.1,1.4,2.1,2.2,3
						c-4.9,6.2-7.4,14.3-6.9,22.2l0.7,4.8c2.2,9.5,8.9,17.9,17.8,22c1.3,0.6,2.7,1.1,4.1,1.5c8.1,2.4,17.2,1.6,24.7-2.5
						C732.6,449.5,733,448.3,732.4,447.3z"/>
					<path class="st2" d="M643.7,426.2c0.3-1.5-1.1-2.7-2.5-2.3c-4.7,1.4-9.9,1.6-14.6,0.4c-5.8-1.5-11.2-5.1-14.8-10
						c-1.7-2.3-3.6-5.8-3-9.3c0.2-1.1-0.5-2.1-1.6-2.3c-1.1-0.2-2.1,0.5-2.3,1.6c-0.9,4.9,1.5,9.4,3.7,12.4c0.9,1.2,1.9,2.4,3,3.5
						c3.9,3.8,8.7,6.6,14,8c5.5,1.4,11.3,1.3,16.8-0.4C643,427.5,643.5,426.9,643.7,426.2L643.7,426.2z"/>
				</g>
				<path class="st2" d="M681.7,337c0.7,0.8,2,1,2.8,0.3c9.9-8.3,26-8.4,36-0.2c10,8.1,13.2,24,7.1,35.3c-0.5,1-0.2,2.2,0.8,2.7
					c0.1,0.1,0.2,0.1,0.4,0.2c0.9,0.3,1.9-0.1,2.3-1c7.1-13.2,3.5-30.9-8.1-40.3c-11.6-9.4-29.7-9.3-41.1,0.3
					C681.1,334.8,681,336.1,681.7,337z"/>
			</g>
		</g>
		<polygon class="st3" points="246.4,349 224.2,349 224.2,326.9 220.2,326.9 220.2,349 198,349 198,353.1 220.2,353.1 220.2,375.2 
			224.2,375.2 224.2,353.1 246.4,353.1 		"/>
		<polygon class="st3" points="847.5,122 808.8,122 808.8,83.2 801.7,83.2 801.7,122 763,122 763,129.1 801.7,129.1 801.7,167.8 
			808.8,167.8 808.8,129.1 847.5,129.1 		"/>
		<polygon class="st3" points="572.4,1023.6 542.4,1023.6 542.4,993.6 536.9,993.6 536.9,1023.6 506.9,1023.6 506.9,1029.1 
			536.9,1029.1 536.9,1059.1 542.4,1059.1 542.4,1029.1 572.4,1029.1 		"/>
		<polygon class="st3" points="890.2,960.1 862.4,960.1 862.4,932.3 857.4,932.3 857.4,960.1 829.6,960.1 829.6,965.2 857.4,965.2 
			857.4,992.9 862.4,992.9 862.4,965.2 890.2,965.2 		"/>
		<polygon class="st3" points="1059.4,677.6 1022,677.6 1022,640.2 1015.1,640.2 1015.1,677.6 977.7,677.6 977.7,684.5 
			1015.1,684.5 1015.1,721.9 1022,721.9 1022,684.5 1059.4,684.5 		"/>
	</g>
</g>
</svg>
