<?xml version="1.0" encoding="utf-8"?>
<!-- Generator: Adobe Illustrator 22.1.0, SVG Export Plug-In . SVG Version: 6.00 Build 0)  -->
<svg version="1.1" id="Слой_1" xmlns="http://www.w3.org/2000/svg" xmlns:xlink="http://www.w3.org/1999/xlink" x="0px" y="0px"
	 viewBox="0 0 3050 2000" style="enable-background:new 0 0 3050 2000;" xml:space="preserve">
<style type="text/css">
	.st0{display:none;fill:#FAFAFA;}
	.st1{fill:url(#SVGID_1_);}
	.st2{fill:url(#SVGID_2_);}
	.st3{fill:#5577FF;}
	.st4{fill:#98A6B1;}
	.st5{fill:url(#SVGID_3_);}
	.st6{fill:url(#SVGID_4_);}
	.st7{fill:#385369;}
	.st8{fill:url(#SVGID_5_);}
	.st9{fill:#FFBB55;}
	.st10{fill:#FFD255;}
	.st11{fill:#FFD078;}
	.st12{fill:#FFFFFF;}
	.st13{fill:#FFD179;}
	.st14{fill:#EEA886;}
	.st15{fill:#152B3D;}
	.st16{fill:#FFC05C;}
	.st17{fill:#254380;}
	.st18{fill:#353A3D;}
	.st19{fill:#E55353;}
	.st20{fill:#6A75BA;}
	.st21{fill:#545D94;}
	.st22{fill:#207CD6;}
	.st23{fill:#2E334D;}
	.st24{fill:#FFC955;}
	.st25{fill:#A77860;}
	.st26{fill:#C29941;}
	.st27{fill:#E0E0E0;}
	.st28{fill:url(#SVGID_6_);}
	.st29{fill:url(#SVGID_7_);}
	.st30{fill:url(#SVGID_8_);}
	.st31{fill:url(#SVGID_9_);}
	.st32{fill:url(#SVGID_10_);}
	.st33{fill:url(#SVGID_11_);}
	.st34{fill:#D6D6D6;}
	.st35{fill:#E8E8E8;}
	.st36{fill:#C2C2C2;}
	.st37{fill:#F5F5F5;}
	.st38{fill:#4AAFFF;}
	.st39{fill:#1A598C;}
	.st40{fill:#2273B5;}
	.st41{fill:#3788CC;}
	.st42{fill:#E2F3FE;}
	.st43{fill:#C5CCD1;}
	.st44{fill:#292C47;}
	.st45{fill:#E2D2CA;}
	.st46{fill:#424773;}
	.st47{fill:#3A3F47;}
	.st48{fill:#323657;}
	.st49{fill:#967732;}
	.st50{fill:#706865;}
	.st51{fill:#BDAFAA;}
	.st52{fill:#CFCFCF;}
	.st53{fill:#202338;}
	.st54{fill:#2F6B8C;}
	.st55{fill:#D9AB48;}
	.st56{fill:#B58F3C;}
	.st57{fill:#C4B4AF;}
	.st58{fill:#EB4747;}
	.st59{fill:#EDDAD3;}
	.st60{fill:#DECCC6;}
	.st61{fill:#E3D1CA;}
	.st62{fill:#B39696;}
	.st63{fill:#DBB8B8;}
	.st64{fill:#F2CBCB;}
	.st65{fill:#163342;}
	.st66{fill:#B07C63;}
	.st67{fill:#EBA684;}
	.st68{fill:#464240;}
	.st69{fill:#F2F2F2;}
	.st70{fill:#DE9D7D;}
	.st71{fill:#5E5853;}
	.st72{fill:#91887F;}
	.st73{fill:#4E568A;}
	.st74{fill:#6E6760;}
	.st75{fill:#807066;}
</style>
<g>
	<rect x="0" y="0" class="st0" width="3050" height="2000"/>
	<g>
		<g>
			<linearGradient id="SVGID_1_" gradientUnits="userSpaceOnUse" x1="988.5474" y1="728.166" x2="1350.5464" y2="1261.1654">
				<stop  offset="0" style="stop-color:#40D5E6"/>
				<stop  offset="1" style="stop-color:#5577FF"/>
			</linearGradient>
			<path class="st1" d="M1110.3,1571l-131.8-93.8l29.4-65.9c-20.8-25.1-38.2-52.8-51.7-82.7l-72.2-2.3l-26.9-159.5l67.4-25.8
				c3-32.6,10.3-64.6,21.8-95.1L897,993.5l93.8-131.8l65.9,29.4c25-20.8,52.8-38.2,82.7-51.7l2.3-72.2l159.5-26.9l25.8,67.4
				c32.6,3,64.6,10.3,95.1,21.8l52.6-49.4l131.8,93.8l-29.4,65.9c20.8,25.1,38.2,52.9,51.7,82.7l72.2,2.3l26.9,159.5l-67.4,25.8
				c-1.3,14.3-3.5,28.7-6.5,42.8l-0.9,4l-177.9-43.8l0.7-3.7c13-70.9-16.5-143.7-75.2-185.5c-83.7-59.5-200.2-39.9-259.7,43.8
				c-59.5,83.7-39.9,200.2,43.8,259.7c17.5,12.4,36.7,21.7,57.1,27.5l3.5,1l-34.1,180.2l-4.1-1c-14.8-3.5-29.6-8-44-13.4
				L1110.3,1571z M988.5,1474.5l121.1,86.2l51.5-48.3l2.3,0.9c13.4,5.1,27.3,9.5,41.2,13l31.2-164.8c-19.9-6.1-38.8-15.3-56-27.6
				c-87.3-62.1-107.7-183.6-45.6-270.9c62.1-87.3,183.6-107.7,270.9-45.6c60.2,42.8,91,117,79.1,189.8l162.6,40.1
				c2.7-13.3,4.6-26.8,5.8-40.3l0.2-2.5l66-25.2l-24.7-146.6l-70.6-2.2l-1-2.3c-13.7-30.8-31.6-59.4-53.2-85l-1.6-1.9l28.8-64.5
				l-121.1-86.2l-51.5,48.3l-2.3-0.9c-31.3-12-64.2-19.5-97.8-22.4l-2.5-0.2l-25.2-66L1149.4,774l-2.2,70.6l-2.3,1
				c-30.8,13.7-59.4,31.6-85,53.2l-1.9,1.6l-64.5-28.8l-86.2,121.1l48.3,51.5l-0.9,2.3c-12,31.3-19.5,64.2-22.4,97.7l-0.2,2.5
				l-66,25.3l24.7,146.6l70.6,2.2l1,2.3c13.7,30.8,31.6,59.4,53.2,85l1.6,1.9L988.5,1474.5z"/>
		</g>
		<linearGradient id="SVGID_2_" gradientUnits="userSpaceOnUse" x1="1009.7748" y1="405.381" x2="1409.5896" y2="1072.6216">
			<stop  offset="0" style="stop-color:#40D5E6"/>
			<stop  offset="1" style="stop-color:#5577FF"/>
		</linearGradient>
		<path class="st2" d="M1331,739.6l-3.9-71.3l-153.6-22.2l-24,67.3c-14.7,1.6-29.3,4.1-43.8,7.5l36.2,171.5
			c54.3-14,112.7-3.4,158.7,29.6l83.5-154.9C1367,756.4,1349.3,747.3,1331,739.6z"/>
		<g>
			<path class="st3" d="M1292.4,1373.6v-8c76.9,0,145.2-46.1,173.8-117.5l7.4,3C1443.8,1325.5,1372.6,1373.6,1292.4,1373.6z"/>
		</g>
		<g>
			<path class="st3" d="M1292.4,1428.2v-8c56.8,0,110.2-18.6,154.6-53.7l5,6.3C1406.2,1409,1351,1428.2,1292.4,1428.2z"/>
		</g>
		<g>
			<path class="st3" d="M1474.5,1440.9l-4.5-6.6c49.9-33.7,89.1-80.6,113.2-135.5l7.3,3.2
				C1565.7,1358.3,1525.6,1406.3,1474.5,1440.9z"/>
		</g>
		<g>
			
				<rect x="1980.3" y="554.3" transform="matrix(0.7406 -0.672 0.672 0.7406 77.3601 1502.3013)" class="st4" width="8" height="193.4"/>
		</g>
		<linearGradient id="SVGID_3_" gradientUnits="userSpaceOnUse" x1="899.5257" y1="594.0867" x2="1362.8873" y2="1279.8628">
			<stop  offset="0" style="stop-color:#40D5E6"/>
			<stop  offset="1" style="stop-color:#5577FF"/>
		</linearGradient>
		<path class="st5" d="M1710.3,1105.2l-12.9-76.5l-71.4-2.3c-13.7-30.6-31.7-59.6-53.8-86l29.1-65.2l-126.4-90l-52,48.8
			c-13.1-5-26.5-9.3-39.9-12.7l-32.1,173c18.1,5.8,35.6,14.5,51.9,26.1c62.2,44.3,89.8,119.1,76.9,189.5l170.3,41.9
			c3.2-14.8,5.4-29.8,6.7-44.8l66.7-25.5L1710.3,1105.2z M1137.4,1065.3c14.8-20.8,33-37.7,53.3-50.5l-86.9-152.3
			c-16.2,9.8-31.8,20.8-46.5,33.2l-65.2-29.1l-45,63.2l-45,63.2l48.8,52c-12.3,32.1-19.8,65.4-22.6,98.8l-66.7,25.5l12.9,76.5
			l12.9,76.5l71.4,2.3c13.7,30.6,31.6,59.6,53.8,86l-29.1,65.2l63.2,45l63.2,45l52-48.8c15,5.7,30.3,10.5,45.8,14.1l32.7-172.5
			c-20.4-5.8-40.1-15.1-58.3-28C1096.5,1269.7,1076.5,1150.9,1137.4,1065.3z"/>
		<linearGradient id="SVGID_4_" gradientUnits="userSpaceOnUse" x1="1321.0536" y1="308.8286" x2="1638.787" y2="761.599">
			<stop  offset="0" style="stop-color:#40D5E6"/>
			<stop  offset="1" style="stop-color:#5577FF"/>
		</linearGradient>
		<path class="st6" d="M1637.7,615c5-13.1,8.1-26.6,9.2-40.2l27.2-10.4l-5.2-31.1l-5.2-31.1l-29.1-0.9c-5.6-12.5-12.9-24.3-21.9-35
			l11.8-26.5l-25.7-18.3L1573,403l-21.2,19.9c-13.1-5-26.6-8.1-40.2-9.2l-10.4-27.2l-31.1,5.2l-31.1,5.2l-0.9,29.1
			c-12.5,5.6-24.3,12.9-35,21.9l-26.5-11.8l-18.3,25.7l-18.3,25.7l19.9,21.2c-5,13.1-8.1,26.6-9.2,40.2l-27.2,10.4l5.2,31.1
			l5.2,31.1l29.1,0.9c5.6,12.5,12.9,24.3,21.9,35l-11.8,26.5l25.7,18.3l25.7,18.3l21.2-19.9c13.1,5,26.6,8.1,40.2,9.2l10.4,27.2
			l31.1-5.2l31.1-5.2l0.9-29.1c12.5-5.6,24.3-12.9,35-21.9l26.5,11.8l18.3-25.7l18.3-25.7L1637.7,615z M1453.8,625
			c-34.9-24.8-43-73.2-18.2-108c24.8-34.8,73.2-43,108-18.2c34.8,24.8,43,73.2,18.2,108C1537,641.7,1488.6,649.8,1453.8,625z"/>
		<g>
			<path class="st7" d="M1919.3,583.8c10.4,0,19-8.5,19-19h-4.5c0,8-6.5,14.5-14.5,14.5s-14.5-6.5-14.5-14.5c0-8,6.5-14.5,14.5-14.5
				h2.2V321h-4.5v225.1c-9.4,1.1-16.7,9.1-16.7,18.8C1900.4,575.3,1908.9,583.8,1919.3,583.8z"/>
		</g>
		<g>
			
				<rect x="1914.2" y="436.8" transform="matrix(-1 -1.224647e-16 1.224647e-16 -1 3839.0186 981.8536)" class="st4" width="10.7" height="108.3"/>
		</g>
		<g>
			<polygon class="st4" points="1792.5,725.2 1786.6,719.9 1919.6,573.5 1924.7,579.4 			"/>
		</g>
		<linearGradient id="SVGID_5_" gradientUnits="userSpaceOnUse" x1="1757.6525" y1="602.8997" x2="2056.8528" y2="1079.5018">
			<stop  offset="0" style="stop-color:#40D5E6"/>
			<stop  offset="1" style="stop-color:#5577FF"/>
		</linearGradient>
		<path class="st8" d="M2138.4,865.5c15.2-11.4,29.3-23.8,42.3-37.2L2059,702.1c-18.2,19.8-41,36.1-67.6,47.1
			c-76.5,31.5-161.6,9.5-214-48.7l-119.5,128.6c12.6,12.9,26.1,24.7,40.3,35.5l-13.9,70.1l71.6,29.8l71.6,29.8l39.9-59.2
			c33.2,4.8,67.3,5,101.4,0.3l39.7,59.3l71.7-29.5l71.7-29.6L2138.4,865.5z"/>
		<g>
			<g>
				<polygon class="st9" points="1816.4,1648.1 2059.8,1648.1 1983,1883.7 1990.2,1886 2070.2,1640.5 1810.9,1640.5 1731.7,1883.7 
					1738.9,1886 				"/>
			</g>
			<g>
				<polygon class="st9" points="1899.2,1883.7 1822.5,1648.1 2065.9,1648.1 2143.4,1886 2150.5,1883.7 2071.4,1640.5 
					1812.1,1640.5 1892,1886 				"/>
			</g>
			<g>
				<rect x="1793.7" y="1714.7" class="st9" width="297.9" height="7.5"/>
			</g>
			<g>
				<rect x="1763" y="1796.6" class="st9" width="356.5" height="7.5"/>
			</g>
		</g>
		<g>
			<g>
				<path class="st10" d="M1148.6,527.2c-6.1-1.8-11.3-5.3-14.9-10c-4.1-5.4-5.7-11.7-4.4-17.8c1.7-12.2,0.5-25.4-0.8-34.6
					c-12.3-14.8-16.4-34.6-11-53.1c8.9-30.7,41.1-48.4,71.8-39.5c30.7,8.9,48.4,41.1,39.5,71.8c-4.8,16.7-16.8,30.2-32.7,37.1
					c-6.6,10.6-11.4,20.6-14.1,29.7c-2.8,12.5-16.7,20-31.2,16.9C1150,527.6,1149.3,527.4,1148.6,527.2z M1188,376.9
					c-28.2-8.2-57.7,8.1-65.9,36.3c-5,17.2-1,35.6,10.5,49.2l0.4,0.5l0.1,0.7c1.4,9.5,2.7,23.6,0.9,36.7l0,0.2
					c-1,4.7,0.2,9.7,3.5,14c3.4,4.4,8.4,7.5,14.3,8.8c12,2.6,23.4-3.4,25.6-13.4l0-0.1l0-0.1c2.9-9.7,8-20.4,15.1-31.6l0.4-0.6
					l0.7-0.3c15-6.2,26.2-18.7,30.7-34.3C1232.4,414.6,1216.1,385,1188,376.9z"/>
			</g>
			<g>
				<polygon class="st10" points="1142.1,505.7 1147.7,442.3 1158.3,455.7 1168.2,448.5 1173.3,458.3 1187.5,450.6 1167.2,510.9 
					1162.7,509.4 1179.2,460.5 1171.4,464.7 1166.5,455.6 1157.4,462.2 1151.3,454.6 1146.8,506.1 				"/>
			</g>
			<g>
				
					<rect x="1129.6" y="521.9" transform="matrix(0.9773 0.2118 -0.2118 0.9773 138.3769 -231.5559)" class="st10" width="41.1" height="16.6"/>
			</g>
			<g>
				
					<rect x="1125.5" y="505.3" transform="matrix(0.9773 0.2118 -0.2118 0.9773 135.9752 -232.3482)" class="st10" width="54.3" height="26.7"/>
			</g>
		</g>
		<g>
			<g>
				<g>
					<g>
						<polygon class="st11" points="703.9,1109.5 701,1108.5 725,1038.6 778.7,1023.8 797.2,947.1 838.5,928.3 847.1,868.8 
							850.1,869.2 841.2,930.4 799.8,949.3 781.2,1026.2 727.4,1041.1 						"/>
					</g>
				</g>
			</g>
			<g>
				<g>
					<path class="st12" d="M786.2,1019.8c2.9,3.4,2.4,8.5-1,11.4c-3.4,2.9-8.5,2.4-11.4-1s-2.4-8.5,1-11.4
						C778.2,1015.9,783.3,1016.4,786.2,1019.8z"/>
				</g>
			</g>
			<g>
				<g>
					<path class="st11" d="M786.1,1032.4c-4.1,3.4-10.1,2.9-13.5-1.2c-3.4-4.1-2.9-10.1,1.2-13.5c4.1-3.4,10.1-2.9,13.5,1.2
						C790.7,1022.9,790.2,1029,786.1,1032.4z M775.8,1020c-2.8,2.3-3.1,6.5-0.8,9.2c2.3,2.8,6.5,3.1,9.2,0.8
						c2.8-2.3,3.1-6.5,0.8-9.2C782.7,1018,778.5,1017.6,775.8,1020z"/>
				</g>
			</g>
			<g>
				<g>
					<path class="st12" d="M804.9,943.5c2.9,3.4,2.4,8.5-1,11.4c-3.4,2.9-8.5,2.4-11.4-1c-2.9-3.4-2.4-8.5,1-11.4
						C796.9,939.6,802,940.1,804.9,943.5z"/>
				</g>
			</g>
			<g>
				<g>
					<path class="st11" d="M804.8,956c-4.1,3.4-10.1,2.9-13.5-1.2c-3.4-4.1-2.9-10.1,1.2-13.5c4.1-3.4,10.1-2.9,13.5,1.2
						C809.4,946.6,808.9,952.6,804.8,956z M794.5,943.6c-2.8,2.3-3.1,6.5-0.8,9.2c2.3,2.8,6.5,3.1,9.2,0.8c2.8-2.3,3.1-6.5,0.8-9.2
						C801.4,941.7,797.2,941.3,794.5,943.6z"/>
				</g>
			</g>
			<g>
				<g>
					<path class="st12" d="M845.6,924.2c2.9,3.4,2.4,8.5-1,11.4c-3.4,2.9-8.5,2.4-11.4-1c-2.9-3.4-2.4-8.5,1-11.4
						C837.6,920.3,842.7,920.7,845.6,924.2z"/>
				</g>
			</g>
			<g>
				<g>
					<path class="st11" d="M845.5,936.7c-4.1,3.4-10.1,2.9-13.5-1.2c-3.4-4.1-2.9-10.1,1.2-13.5c4.1-3.4,10.1-2.9,13.5,1.2
						C850.1,927.2,849.6,933.3,845.5,936.7z M835.1,924.3c-2.8,2.3-3.1,6.5-0.8,9.2c2.3,2.8,6.5,3.1,9.2,0.8
						c2.8-2.3,3.1-6.5,0.8-9.2C842.1,922.4,837.9,922,835.1,924.3z"/>
				</g>
			</g>
			<g>
				<g>
					<path class="st12" d="M732.7,1035.4c2.9,3.4,2.4,8.5-1,11.4c-3.4,2.9-8.5,2.4-11.4-1c-2.9-3.4-2.4-8.5,1-11.4
						C724.8,1031.5,729.9,1032,732.7,1035.4z"/>
				</g>
			</g>
			<g>
				<g>
					<path class="st11" d="M732.7,1047.9c-4.1,3.4-10.1,2.9-13.5-1.2c-3.4-4.1-2.9-10.1,1.2-13.5c4.1-3.4,10.1-2.9,13.5,1.2
						C737.3,1038.5,736.7,1044.5,732.7,1047.9z M722.3,1035.5c-2.8,2.3-3.1,6.5-0.8,9.2c2.3,2.8,6.5,3.1,9.2,0.8
						c2.8-2.3,3.1-6.5,0.8-9.2C729.2,1033.6,725.1,1033.2,722.3,1035.5z"/>
				</g>
			</g>
		</g>
		<polygon class="st13" points="2360.1,668.1 2408.8,668.1 2393.9,637.2 2345.3,637.2 		"/>
		<polygon class="st13" points="2337.4,668.1 2349,668.1 2334.1,637.2 2322.5,637.2 		"/>
		<polygon class="st13" points="2169.4,631.3 2366.3,631.3 2359.8,615.9 2162.9,615.9 		"/>
		<g>
			<g>
				<g>
					<path class="st14" d="M1939.1,1228.9c0,0-4.7-8.2,2.8-30.3c7.2-21.3,32.2-19.4,40.1-5.7c7.9,13.7,5.3,22.1-6.4,37.6
						C1963.9,1245.9,1943.9,1236,1939.1,1228.9z"/>
				</g>
			</g>
			<g>
				<g>
					<path class="st14" d="M1997.1,1608.2c0,0,1.2,9.1,1.4,10.4c0.2,1.4,13.7-0.8,13.7-0.8l1.1-10.8
						C2013.3,1607.1,1998.8,1607,1997.1,1608.2z"/>
				</g>
			</g>
			<g>
				<g>
					<path class="st15" d="M1998.3,1617.5c0,0-4.3,5.5-8.5,7.8c-4.2,2.4-10.7,3.3-13.2,5.8c-1.8,1.8-6.5,9.4,10.8,9.3
						s25.6,1.1,27.5-1.9c1.9-2.9-2.7-21.6-2.7-21.6S2008.1,1618.1,1998.3,1617.5z"/>
				</g>
			</g>
			<g>
				<g>
					<path class="st14" d="M1903,1608.2c0,0,1.2,9.1,1.4,10.4c0.2,1.4,13.7-0.8,13.7-0.8l1.1-10.8
						C1919.2,1607.1,1904.7,1607,1903,1608.2z"/>
				</g>
			</g>
			<g>
				<g>
					<path class="st15" d="M1904.3,1617.5c0,0-4.3,5.5-8.5,7.8c-4.2,2.4-19.5,4.3-21.9,6.8c-1.8,1.8-4.7,8.9,19.6,8.3
						c17.3-0.5,25.6,1.1,27.5-1.9c1.9-2.9-2.7-21.6-2.7-21.6S1912.9,1617.8,1904.3,1617.5z"/>
				</g>
			</g>
			<g>
				<g>
					<path class="st16" d="M1992.5,1382.8c0,0,7,21.6,6,40.3c-0.9,18.7,3.6,39.1,5.4,58.5c2.1,21.7,10.5,73.1,10.8,84.8
						c0.3,11.6-1.3,48.7-1.3,48.7l-16.9,0.4c0,0-14.2-89.9-17.8-99.1c-3.7-9.2-21.9-74.6-22.5-81.9
						C1955.7,1427.2,1992.5,1382.8,1992.5,1382.8z"/>
				</g>
			</g>
			<g>
				<g>
					<path class="st16" d="M1922.6,1380.5c0,0-10.2,57.2-11.5,68.6c-1.2,11.4-2,55.2-2.6,62.4c-0.6,7.1-4.1,93.4-7.3,104h18.8
						c0,0,19.3-62.7,19.3-92.3c0-29.7,12.8-64.5,21-84c8.3-19.6,27.2-20,32.2-56.3C1992.5,1382.8,1929.4,1369,1922.6,1380.5z"/>
				</g>
			</g>
			<g>
				<g>
					<path class="st14" d="M1945.9,1234.8c0,0,2.1,6.2,0,10.6c-2.1,4.4,27.1,1.8,27.1,1.8s-1.3-9.1,2.5-16.6
						C1979.3,1223,1945.9,1234.8,1945.9,1234.8z"/>
				</g>
			</g>
			<g>
				<g>
					<path class="st16" d="M1993.9,1387.5c0,0-10.5,10.8-72.2-1.7l0.9-5.3l70.2,2.6L1993.9,1387.5z"/>
				</g>
			</g>
			<g>
				<g>
					<path class="st14" d="M1941.5,1246.8c0,0-10.8,1.1-13.9,1.7c-3.1,0.6-23.8-3.7-28.1-4.2c-4.3-0.4-22.4-12.9-23-14.4
						c-0.6-1.5-11-28-11.6-33.7c-0.6-5.7-10.2-2.8-9.4,1.2c1.5,7.4,3.5,25.3,4.6,30.5c1.2,5.6,4.3,18.3,6.1,19.9
						c1.8,1.6,18.1,14,34.1,19.3c16,5.3,28.1,13.1,28.1,13.1h78.9c0,0,30.7-43.9,31.4-50.5c0.7-6.6-21.4-50.5-25.8-56
						c-4.4-5.5-10.8,1.8-10.8,1.8s13.2,38.7,15,44.2c1.8,5.5-15.4,29.7-20.1,29.8c-4.7,0.1-16.8-1.5-22.1-1.7
						c-5.4-0.2-11-2.6-11-2.6L1941.5,1246.8z"/>
				</g>
			</g>
			<g>
				<g>
					<path class="st17" d="M1907.5,1276.1c0,0,9.7,6.4,10.5,17.4c0.9,11,4.4,28.4,6.2,34.4c1.8,5.9-1.5,49.1-2,52.2
						c-0.4,3.1,61.1,10.4,70.5,3.1c0,0,2.6-40.3,3.7-51.8c1.1-11.5,6.4-39.2,8.2-43c1.8-3.7,23.1-33.7,24-37.7
						c0,0-11.1-17.6-19-17.8c0,0-12.6,14.8-16.7,15.4c-4.1,0.7-29.3-4-29.3-4c0,0-2.7,3.7-17.4-0.7c0,0-17.4,2-20.2,2.3
						c-3.4,0.4-27.2-3-27.2-3s-9.6,16.1-7.9,24.3L1907.5,1276.1z"/>
				</g>
			</g>
			<g>
				<g>
					<path class="st14" d="M1865.4,1199.7c0,0-2.2-10.2,0.4-13.1c1.5-1.7,5-6.1,5.4-6.7c0.3-0.6,4.1-2.8,4.1-3.9
						c0-1.1-3.7-2.4-7,0.6c-3.2,3-5.3,3.7-6.6,3.3c-1.3-0.3-3.2-11.1-3.3-13.8c-0.2-2.7-1.2-9.7-2.9-9.3c-1.7,0.5-1.6,3.6-1.6,3.6
						s-1.9-5.4-3.2-4.3c-1.3,1.1-1.1,3.7-1.1,3.7s-2.4-3-3.1-0.8c-0.6,2.2,0,4.1,0,4.1s-2.5-1.4-2.7,2c-0.2,3.4,0.7,13.4,2.5,17
						c1.8,3.6,8.5,12.9,9.3,16.6C1856.4,1202.3,1865.4,1199.7,1865.4,1199.7z"/>
				</g>
			</g>
			<g>
				<g>
					<path class="st14" d="M2004.1,1181.8c0,0-7.3-12.3-9.8-13.4c-2.5-1.1-6-1.7-9.1-3.9c-3.1-2.2-7.2-4-6.9-4.8
						c0.2-0.7,3.9-0.4,7.7,1.2c3.9,1.7,5.6,0.9,6,0c0.4-0.9-2.1-7.1-3.3-8.6c-1.2-1.5-9.5-9.9-8.2-11.1c1.4-1.2,6.8,3.4,7.7,4.3
						c0,0-4.3-9.1-2.6-9.5c1.7-0.4,4.8,2.8,4.8,2.8s-0.4-7.8,8,4.8c0,0-1.8-4.2,0.8-2.8c2.6,1.4,5.1,9.3,5.9,13.2
						c0.8,4,4.5,16.6,7.6,19.6C2015.9,1176.7,2004.1,1181.8,2004.1,1181.8z"/>
				</g>
			</g>
			<g>
				<g>
					<path class="st18" d="M1975.5,1230.5c0,0-3.9,0.3-12.1-2.5c-8.2-2.8-8.8-17.2-10.6-15.5c-3.6,3.5-7.1,1.1-8.4-1
						c0,0,4-5.3,2.2-7.8c-1.9-2.5-4.9-4.4-4.9-4.4s5.8-27.9,32.1-15.2C2004.6,1199,1975.5,1230.5,1975.5,1230.5z"/>
				</g>
			</g>
			<g>
				<g>
					<path class="st17" d="M1945.9,1245.3l0.9-4c0,0,16.8-0.3,26,1l1,4.8C1973.8,1247.1,1962,1252.4,1945.9,1245.3z"/>
				</g>
			</g>
			<g>
				<g>
					<path class="st14" d="M1950.1,1209c1.5-2.5,7.2-4.2,7.8,2.9c0.5,5.6-10.1,11.7-10.2,6.5
						C1947.6,1213.2,1949.1,1210.7,1950.1,1209z"/>
				</g>
			</g>
			<g>
				<g>
					<path class="st19" d="M1865,1197.4c0,0-6.1,0.1-9,2.8c0,0-0.2,1.7,0.5,3.1c0,0,5.3-2.5,9.3-2.9
						C1865.8,1200.3,1865.7,1198.1,1865,1197.4z"/>
				</g>
			</g>
			<g>
				<g>
					<path class="st18" d="M1857.9,1198.9c-0.6,1.3,0.1,2.9,1.4,3.4c1.3,0.6,2.9-0.1,3.4-1.4c0.6-1.3-0.1-2.9-1.4-3.4
						C1860,1197,1858.4,1197.6,1857.9,1198.9z"/>
				</g>
			</g>
		</g>
		<g>
			<g>
				<g>
					<path class="st20" d="M801.4,656.3c0,0-8-14.6-12.5-19.9c-4.5-5.3-19.6-9.2-17.5-15.9c2-6.7,22.2-3.8,27.8,2.8
						c5.6,6.6,22.5,8.9,23.1,11.7c0.6,2.8-5.9,18-9.5,20.5C809.1,657.9,801.4,656.3,801.4,656.3z"/>
					<path class="st21" d="M767.5,668.7c0,0-13-10.3-19.2-13.3c-6.3-3-21.6-0.7-22.4-7.7c-0.8-7,18.9-12.3,26.6-8.5
						c7.7,3.8,24.2-0.8,25.8,1.6c1.6,2.3,1.7,18.8-0.6,22.6C775.3,667.1,767.5,668.7,767.5,668.7z"/>
					<path class="st14" d="M796.3,695.5c0,0,5.7-38.7,5.4-45.5c-0.1-1.9,11.7-1.2,11.1,2.5c-1.2,8,4.2,39.2,3.3,44.9
						C815.2,703.1,795.8,699.1,796.3,695.5z"/>
					<path class="st14" d="M778.6,706.7c0,0-10.6-37.6-13.1-43.9c-1.1-2.8,9.7-7.1,11.2-2.1c2.3,7.8,19.4,34.3,20.8,39.9
						C798.9,706.1,779.6,710.1,778.6,706.7z"/>
					<path class="st22" d="M786,732.8c0,0-11.4-38.5-13.2-42.5l18-11.1c0,0,8.3,24.6,9.5,30.7C801.4,716,786,732.8,786,732.8z"/>
					<path class="st23" d="M1104.3,631.2c0,0-17.4,4.4-25.6,17.5c-8.3,13.1-15.4,28.3-30.9,35.1c-15.5,6.9-15.6,24.5-14.4,27.3
						c1.2,2.7,48.9,56.3,59.3,58.4c10.4,2.1,29.9,0.6,27.8-13.1c-2.1-13.8-22.5-43.4-11-58.4c11.5-15,14.4-28.7,14.4-28.7
						L1104.3,631.2z"/>
					<path class="st14" d="M1101.3,695.3c0,0-0.5-0.2-1.4-0.2c-1-0.1-2.4-0.1-4.1,0.5c-0.4,0.1-1,0.4-1.6,0.8
						c-4.1,2.4-13.9,9-15.2,9.2c-1.5,0.2-0.2-22.6-0.2-22.6s5.2-9.2,5.9-15.3C1085.3,661.6,1101.3,695.3,1101.3,695.3z"/>
					<path class="st22" d="M979.1,719.1c0,0-19.1-13.4-41.5-9.2c-22.4,4.2-24.8,14.6-32.5,15.1c-7.7,0.5-33.3-1.7-54.4,4.4
						c-21.1,6.1-38.8,6.8-41.2,5c-2.4-1.8,13.2-36.8,13.2-41.7l-26.1-6.8c0,0-7.5,31.1-10.4,38.2c-3.1,7.5-9.1,21.6-0.6,33.9
						c8.6,12.3,32.5,6.7,46.9,9.2c14.5,2.5,79.3,0.9,90.6,0.3c12.3-0.7,49.3-2.4,49.3-2.4L979.1,719.1z"/>
					<path class="st14" d="M1135.8,649.8c0,0,1.2,18.8-3,24.5c-1.7,2.3-2.8,3.5-3.6,4.2c-1.1,0.9-1.9,2.1-2.4,3.5
						c-1.3,3.6-2.1,8.7-3.1,9.8c-1.1,1.2-4.4-1.8-5.6-1.8c-1.2,0-12.7,9.9-15.4,7.9c-2.7-2-19.5-19-18.1-30.7
						c1.4-11.7,6.5-29.1,25.4-28.9C1129,638.2,1134.4,645.1,1135.8,649.8z"/>
					<path class="st24" d="M1078.8,739.7c-0.4,0.8-7.3,11.8-14.9,18.3c-3.2,2.7-6.4,4.5-9.4,4.5c-0.9,0-1.8,0-2.6,0
						c-8.7,0.2-15.4,1.6-27.2,2.2c-12.2,0.6-41.9-1.1-42.8-1.1c-0.9,0-9.4,1.5-9.4,1.5c-3.1-3.7,5-45.8,6.6-46.1
						c1.5-0.2,11.4,3.5,20.8,2c9.4-1.5,13.2-2.4,27.2-18.9c14-16.4,28.1-20.6,34-19.3c5.9,1.3,17.7,0,17.7,0
						S1079.3,738.6,1078.8,739.7z"/>
					<path class="st23" d="M1127.9,663.3c0,0,3.5,9.1,5.4,10.4c0,0,6.8-7.2,2.4-24.9c-4.4-17.7-20.8-19.4-31.4-17.6
						c-13.2,2.2-26.5,46.9-25.8,51.3c0.7,4.4,15.5-23.1,28.4-20.9C1119.9,663.8,1120,664.5,1127.9,663.3z"/>
					<path class="st25" d="M1099.9,695.1c-1-0.1-2.4-0.1-4.1,0.5c-0.4,0.1-1,0.4-1.6,0.8c-3-4.7-5.8-15.9-5.9-16.3
						C1090.3,684.3,1099.9,695.1,1099.9,695.1z"/>
					<path class="st26" d="M1063.9,758c-3.2,2.7-6.4,4.5-9.4,4.5c-0.9,0-1.8,0-2.6,0l4.3-34.9L1063.9,758z"/>
					<path class="st14" d="M1132.2,818.1l-8.4,7.7c-7.3-3.9-25.5-17-29-20c-3.7-3.1-28.2-23.6-31.5-28.3c-3.4-4.7-7.7-52.9-7.3-55.1
						c0.4-2.2,21.3-3.3,23.7,1.8c0,0,1.1,27.5,1.6,32.1c0.5,4.6,2.3,8.8,5.5,12.6c4.4,5.4,13.7,17.8,22.7,27.9
						C1111.6,799.3,1129.4,815.7,1132.2,818.1z"/>
					<path class="st24" d="M1081.4,724.8c0,0,1.3-36.6-10.6-36.2c-15.1,0.6-17.3,19-15.3,39C1055.5,727.7,1078,727.9,1081.4,724.8z"
						/>
					<path class="st14" d="M1128.1,814.5c0,0,1.1,1.8,2.7,2.3c2.8,0.9,7-0.9,9,2.8c2,3.7-7.8,12.9-10.5,13.4
						c-2.7,0.6-6.9-3.6-10.2-11.7C1115.8,813.2,1128.1,814.5,1128.1,814.5z"/>
					<path class="st14" d="M1139,818.5c0,0,5,3.8,10.1,8.8c4.5,4.3,9,10,7.9,11.1c-1.6,1.5-4.6-3.4-9.3-7.4
						c-4.3-3.7-4.1-2.3-4.1-2.3s0-0.4,3.9,4.5c4.3,5.3,8.7,11.5,7.3,12.4c-0.8,0.6-0.9,0.7-2.7-1c0.9,1.2,0.7,1.6,0.2,2
						c-2.4,2-9.8-4.8-12.8-7.5c2.3,2.1,3.7,3.9,1.4,4.1c-2.6,0.3-12.7-9.8-16.7-13.1C1119.8,826.5,1139,818.5,1139,818.5z"/>
				</g>
				<path class="st27" d="M987.7,720.8c0,0-4,28.8-2,43c0,0,2.1,1.6,6.3,0.3c0,0,1-31.5,3.4-42.6C995.3,721.5,994,720.5,987.7,720.8
					z"/>
			</g>
			<g>
				<rect x="988.6" y="201.8" class="st27" width="3.1" height="540.8"/>
			</g>
		</g>
		<g>
			<linearGradient id="SVGID_6_" gradientUnits="userSpaceOnUse" x1="2148.0186" y1="1633.0706" x2="2305.7129" y2="1633.0706">
				<stop  offset="0" style="stop-color:#40D5E6"/>
				<stop  offset="1" style="stop-color:#5577FF"/>
			</linearGradient>
			<path class="st28" d="M2161.8,1424.7c13.6-6.5,27.1,36.8,27.1,36.8c23.1,30.5,55.4-10.1,52.3,35.6c-5.5,79.9,92,25.1,47,108.5
				c-45,83.4,39.7,47.2,11.8,114.4c-27.9,67.2,8.3,147.5-33.8,114.5c0,0-37-81.2-75.2-106.3c-38.2-25.1,22.9-54.9,10.9-89
				c-17.4-49.6-59.2-47.6-29-100.9C2203,1485,2115.6,1446.8,2161.8,1424.7z"/>
			<g>
				<path class="st12" d="M2279.5,1803.9c-18.2-12.8-39.6-102.1-40.8-155.4c-0.7-27.3-8.7-38.6-15.8-48.6
					c-6.8-9.6-12.7-17.8-9.2-36.8c6.5-36.3-10.6-52-10.8-52.1l2-2.3c0.8,0.7,18.7,16.8,11.8,54.9c-3.2,17.7,2.1,25.2,8.7,34.6
					c7,9.9,15.7,22.1,16.4,50.3c1.4,57.1,23.2,141.4,39.6,153L2279.5,1803.9z"/>
			</g>
			<g>
				<linearGradient id="SVGID_7_" gradientUnits="userSpaceOnUse" x1="2263.6997" y1="1721.0653" x2="2406.3052" y2="1721.0653">
					<stop  offset="0" style="stop-color:#40D5E6"/>
					<stop  offset="1" style="stop-color:#5577FF"/>
				</linearGradient>
				<path class="st29" d="M2286.3,1810.5c-2.4,0-4.9-0.3-7.7-0.8c-7-1.4-11.6-5.1-13.7-11c-4.9-14.1,6.5-36.9,15.7-47.9
					c0.2-0.2,15.6-19.1,14-45.3c-0.3-4.4-0.7-8.5-1.1-12c-1.2-10.4-2-17.9,2.5-22.9c3.9-4.4,11.5-6.3,25.3-6.4
					c24.3-0.1,33.8-10.2,41.6-18.2c3.3-3.4,6.4-6.7,10.1-8.7l0,0c12.1-6.6,24.9-7.6,30.4-2.3c2.6,2.5,4.9,7.4,0.5,16.5
					c-4,8.3-9.2,13.6-13.3,17.9c-5.6,5.7-9.3,9.5-7.4,17c0.5,1.8,1,3.5,1.5,5.3c3.7,12.8,8,27.3-13.9,37.1
					c-4.6,2.1-8.9,3.7-12.6,5.2c-15.3,6-24.5,9.6-34.9,31.6c-2,4.3-3.8,8.3-5.5,12.2C2309.5,1796.5,2303.2,1810.5,2286.3,1810.5z
					 M2374.3,1639.9c-3.3,1.8-6.1,4.8-9.4,8.2c-8.1,8.5-18.2,19-43.7,19.2c-12.7,0.1-19.8,1.7-23.1,5.4c-3.6,4-2.8,10.9-1.7,20.5
					c0.4,3.6,0.9,7.7,1.1,12.2c1.7,27.4-14,46.6-14.7,47.4c-9.1,10.9-19.5,32.6-15.2,45c1.7,4.8,5.5,7.9,11.4,9.1
					c20.6,4.2,26.3-8.7,35.7-30.1c1.7-3.9,3.5-8,5.5-12.3c10.9-23.1,21.1-27.1,36.5-33.1c3.7-1.5,7.9-3.1,12.5-5.2
					c19.5-8.8,16-20.8,12.3-33.5c-0.5-1.8-1.1-3.6-1.5-5.4c-2.3-9.2,2.3-13.9,8.1-19.9c4.2-4.3,9-9.2,12.8-17.1
					c2-4.1,3.6-9.8,0.1-13C2396.7,1632.8,2385.1,1634,2374.3,1639.9L2374.3,1639.9z"/>
			</g>
			<g>
				<linearGradient id="SVGID_8_" gradientUnits="userSpaceOnUse" x1="2275.8896" y1="1741.8022" x2="2382.9248" y2="1741.8022">
					<stop  offset="0" style="stop-color:#40D5E6"/>
					<stop  offset="1" style="stop-color:#5577FF"/>
				</linearGradient>
				<path class="st30" d="M2278.9,1827.9l-3-0.2c0.1-2.8,3.9-69.5,30.7-89c29.4-21.4,38.6-44.4,43-59.8
					c5.2-18.2,31.6-23.1,32.8-23.3l0.5,3c-0.3,0-25.7,4.7-30.4,21.1c-4.5,15.9-14,39.5-44.2,61.5
					C2282.8,1759.9,2278.9,1827.3,2278.9,1827.9z"/>
			</g>
			<linearGradient id="SVGID_9_" gradientUnits="userSpaceOnUse" x1="2237.238" y1="1655.6707" x2="2361.8901" y2="1655.6707">
				<stop  offset="0" style="stop-color:#40D5E6"/>
				<stop  offset="1" style="stop-color:#5577FF"/>
			</linearGradient>
			<path class="st31" d="M2340.1,1492c-19-6.5-15.1,30.1-23.1,57.3c-8,27.1-89.4,11.8-55.3,79.8c34.2,67.9-43.2,22.7-20.1,82
				c23.1,59.3,2,122.7,27.1,106.6c25.1-16.1,14.1-90.8,40.2-99.7c26.1-8.9,30.4-19.2,4.5-43.3c-25.9-24.1,67.8-48.1,44.7-96.8
				S2362.1,1499.5,2340.1,1492z"/>
			<g>
				<path class="st12" d="M2280.4,1814.7c-2.4-10.1-22.8-99.5-3.8-110.3c16.8-9.5,16.4-46.5,13.8-81.5c-2.3-30.9,37.4-45.4,39.1-46
					l1,2.8c-0.4,0.1-39.3,14.3-37.1,42.9c2.7,35.9,3,74-15.3,84.3c-14.5,8.2-1.1,80,5.2,106.9L2280.4,1814.7z"/>
			</g>
			<linearGradient id="SVGID_10_" gradientUnits="userSpaceOnUse" x1="2208.6328" y1="1834.4669" x2="2323.6592" y2="1834.4669">
				<stop  offset="0" style="stop-color:#FF9340"/>
				<stop  offset="1" style="stop-color:#FFCE45"/>
			</linearGradient>
			<polygon class="st32" points="2323.7,1782.9 2296.5,1886 2235.8,1886 2208.6,1782.9 			"/>
			<linearGradient id="SVGID_11_" gradientUnits="userSpaceOnUse" x1="2208.6328" y1="1834.4669" x2="2323.6592" y2="1834.4669">
				<stop  offset="0" style="stop-color:#C97332"/>
				<stop  offset="1" style="stop-color:#FFCE45"/>
			</linearGradient>
			<path class="st33" d="M2323.7,1782.9c0,0-59.8,11.2-59.8,103.1h-28.1l-27.2-103.1H2323.7z"/>
		</g>
		<g>
			<g>
				<path class="st27" d="M2165.2,709.5c-11.8-8.7-19.3-13.7-19.4-13.8l4.4-6.7c0.3,0.2,7.7,5.1,19.7,14L2165.2,709.5z"/>
			</g>
			<g>
				<path class="st27" d="M897,1237.4l-5-6.3c12.5-9.9,25.2-19.7,37.7-29l4.8,6.4C922.1,1217.8,909.5,1227.5,897,1237.4z
					 M973,1181.1l-4.5-6.6c13.2-9,26.5-17.9,39.7-26.2l4.3,6.8C999.4,1163.3,986.1,1172.1,973,1181.1z M1052.9,1130.5l-4-6.9
					c13.8-8,27.8-15.7,41.7-22.9l3.7,7.1C1080.6,1114.9,1066.6,1122.6,1052.9,1130.5z M2156.6,1101l-0.4-8c16.4-0.8,31.9-3,46.2-6.4
					l1.8,7.8C2189.5,1097.9,2173.5,1100.1,2156.6,1101z M2108.7,1100.3c-14.8-1.1-30.3-2.9-47.4-5.5l1.2-7.9
					c16.9,2.6,32.2,4.4,46.8,5.5L2108.7,1100.3z M1136.7,1086.8l-3.4-7.3c14.5-6.7,29.1-13.1,43.6-19.1l3,7.4
					C1165.6,1073.8,1151.1,1080.1,1136.7,1086.8z M2014.4,1086.2c-13.9-2.9-29.1-6.2-46.4-10.3l1.8-7.8c17.3,4,32.4,7.4,46.2,10.2
					L2014.4,1086.2z M2249.7,1078.2l-3.6-7.2c6.9-3.4,13.7-7.3,20.2-11.6c6.7-4.4,13-9,18.8-13.6l5,6.2c-6,4.8-12.5,9.5-19.4,14.1
					C2264,1070.5,2256.9,1074.6,2249.7,1078.2z M1921.8,1064.8l-19-4.7c-8.9-2.2-18-4.4-27.1-6.7l1.9-7.8c9.1,2.2,18.2,4.5,27.1,6.7
					l19,4.7L1921.8,1064.8z M1224.2,1051.1l-2.7-7.5c15-5.3,30.3-10.2,45.4-14.6l2.3,7.7C1254.2,1041,1239.1,1045.9,1224.2,1051.1z
					 M1829.6,1042.3c-16.6-3.9-31.7-7.3-46.2-10.4l1.7-7.8c14.6,3.1,29.8,6.5,46.4,10.4L1829.6,1042.3z M1314.8,1024.5l-1.8-7.8
					c15.4-3.6,31.1-6.9,46.7-9.7l1.4,7.9C1345.6,1017.7,1330.1,1020.9,1314.8,1024.5z M1736.9,1022.6c-15.9-3-31.6-5.7-46.6-8
					l1.2-7.9c15.1,2.3,30.9,5.1,46.9,8L1736.9,1022.6z M2323.8,1017.1l-6.5-4.6c9.3-13,15.6-27,18.9-41.4l7.8,1.8
					C2340.4,988.3,2333.6,1003.2,2323.8,1017.1z M1643.4,1008.2c-15.9-1.9-31.7-3.4-47.1-4.5l0.6-8c15.5,1.2,31.4,2.7,47.4,4.6
					L1643.4,1008.2z M1407.7,1007.8l-1-7.9c15.6-2,31.6-3.5,47.4-4.7l0.6,8C1439,1004.3,1423.2,1005.8,1407.7,1007.8z
					 M1549.2,1001.2c-15.8-0.5-31.5-0.5-47.3-0.2l-0.2-8c15.9-0.3,31.7-0.2,47.6,0.2L1549.2,1001.2z M2337,925.5
					c-2.4-14.1-7.2-28.9-14.2-44l7.2-3.4c7.4,15.8,12.4,31.3,14.9,46L2337,925.5z M2299.2,841.2c-8.4-12.1-18.2-24.5-29.1-36.9
					l6-5.3c11.1,12.7,21.1,25.3,29.7,37.6L2299.2,841.2z M2237.4,770.3c-11-10.5-22.8-21.2-35.2-31.5l5.1-6.1
					c12.5,10.5,24.4,21.2,35.6,31.9L2237.4,770.3z"/>
			</g>
			<g>
				<path class="st27" d="M842,1283.2l-5.3-6c6.1-5.3,12.2-10.5,18.3-15.7l5.2,6.1C854.1,1272.7,848.1,1277.9,842,1283.2z"/>
			</g>
		</g>
		<g>
			<g>
				<g>
					<g>
						<polygon class="st34" points="701.1,1364 794.6,1311.7 762.5,1309.6 						"/>
					</g>
				</g>
			</g>
			<g>
				<g>
					<g>
						<polygon class="st35" points="701.1,1364 729.9,1317.7 754,1317.1 						"/>
					</g>
				</g>
			</g>
			<g>
				<g>
					<g>
						<polygon class="st36" points="773.1,1323.7 775,1335.5 701.1,1364 						"/>
					</g>
				</g>
			</g>
		</g>
		<g>
			<path class="st37" d="M1486,1645h-225.6c-10.4,0-18.8-8.4-18.8-18.8v-268.1c0-10.4,8.4-18.8,18.8-18.8H1486
				c10.4,0,18.8,8.4,18.8,18.8v268.1C1504.8,1636.5,1496.3,1645,1486,1645z"/>
			<g>
				<g>
					<path class="st38" d="M1401.3,1466c-10.1-28.2-37-45.5-65.4-44.6c-6.9,0.2-13.8,1.5-20.6,3.9c-20.7,7.4-35.5,23.8-41.6,43.3
						c-4.2,13.5-4.2,28.4,0.9,42.7c0.5,1.4,1.1,2.8,1.7,4.2c2.7,6.2,6.2,11.8,10.4,16.7c17.6,20.7,46.8,29.4,73.9,19.8
						C1395.6,1539.5,1413.9,1501,1401.3,1466z M1355,1536.2c-20.3,7.3-42.2,0.7-55.4-14.8c-3.1-3.7-5.8-7.9-7.8-12.6
						c-0.4-1-0.9-2.1-1.2-3.1c-3.8-10.7-3.8-21.9-0.7-32c4.6-14.6,15.7-26.9,31.2-32.5c5.1-1.8,10.3-2.8,15.5-2.9
						c21.3-0.6,41.4,12.3,49,33.4C1394.9,1497.9,1381.2,1526.8,1355,1536.2z"/>
				</g>
			</g>
			<g>
				<g>
					<path class="st39" d="M1289.9,1473.7l-16.1-5c6.1-19.4,20.9-35.9,41.6-43.3c6.8-2.4,13.8-3.7,20.6-3.9l0.5,16.8
						c-5.1,0.2-10.4,1.1-15.5,2.9C1305.5,1446.8,1294.4,1459.1,1289.9,1473.7z"/>
				</g>
			</g>
			<g>
				<g>
					<path class="st40" d="M1291.8,1508.8l-15.4,6.7c-0.6-1.4-1.1-2.8-1.7-4.2c-5.1-14.3-5.1-29.2-0.9-42.7l16.1,5
						c-3.2,10.1-3.2,21.3,0.7,32C1290.9,1506.8,1291.3,1507.8,1291.8,1508.8z"/>
				</g>
			</g>
			<g>
				<g>
					<path class="st41" d="M1286.7,1532.3c-4.2-4.9-7.7-10.5-10.4-16.7l15.4-6.7c2,4.7,4.7,8.9,7.8,12.6L1286.7,1532.3z"/>
				</g>
			</g>
			<g>
				<g>
					<path class="st38" d="M1459.7,1507.1c-11.2-5.3-24.1-2.5-32.2,6.1c-1.9,2.1-3.6,4.5-4.9,7.2c-3.9,8.2-3.4,17.4,0.5,24.8
						c2.7,5.2,7.1,9.5,12.7,12.2c0.6,0.3,1.1,0.5,1.7,0.7c2.6,1,5.3,1.6,7.9,1.8c11.2,0.9,22.3-5.1,27.4-15.8
						C1479.5,1530.3,1473.6,1513.7,1459.7,1507.1z M1466.6,1541.2c-3.8,8.1-12.1,12.6-20.5,11.9c-2-0.2-4-0.6-6-1.4
						c-0.4-0.2-0.9-0.4-1.3-0.6c-4.3-2-7.5-5.3-9.6-9.2c-2.9-5.6-3.3-12.5-0.4-18.6c1-2,2.2-3.8,3.7-5.4c6-6.4,15.7-8.5,24.1-4.6
						C1467.1,1518.4,1471.5,1530.8,1466.6,1541.2z"/>
				</g>
			</g>
			<g>
				<g>
					<path class="st39" d="M1429.3,1542l-6.2,3.2c-3.9-7.5-4.4-16.6-0.5-24.8c1.3-2.7,2.9-5.1,4.9-7.2l5.1,4.8
						c-1.5,1.6-2.7,3.4-3.7,5.4C1426,1529.5,1426.4,1536.4,1429.3,1542z"/>
				</g>
			</g>
			<g>
				<g>
					<path class="st40" d="M1440.1,1551.7l-2.5,6.5c-0.6-0.2-1.1-0.5-1.7-0.7c-5.7-2.7-10-7.1-12.7-12.2l6.2-3.2
						c2,3.9,5.3,7.2,9.6,9.2C1439.3,1551.4,1439.7,1551.5,1440.1,1551.7z"/>
				</g>
			</g>
			<g>
				<g>
					<path class="st38" d="M1472.9,1459.5c5.3-11.2,2.5-24.1-6.1-32.2c-2.1-1.9-4.5-3.6-7.2-4.9c-8.2-3.9-17.4-3.4-24.8,0.5
						c-5.2,2.7-9.5,7.1-12.2,12.7c-0.3,0.6-0.5,1.1-0.7,1.7c-1,2.6-1.6,5.3-1.8,7.9c-0.9,11.2,5.1,22.3,15.8,27.4
						C1449.8,1479.3,1466.3,1473.3,1472.9,1459.5z M1438.8,1466.4c-8.1-3.8-12.6-12.1-11.9-20.5c0.2-2,0.6-4,1.4-6
						c0.2-0.4,0.4-0.9,0.6-1.3c2-4.3,5.3-7.5,9.2-9.6c5.6-2.9,12.5-3.3,18.6-0.4c2,1,3.8,2.2,5.4,3.7c6.4,6,8.5,15.7,4.5,24.1
						C1461.7,1466.9,1449.3,1471.3,1438.8,1466.4z"/>
				</g>
			</g>
			<g>
				<g>
					<path class="st38" d="M1438.1,1429.1l-3.2-6.2c7.5-3.9,16.6-4.4,24.8-0.5c2.7,1.3,5.1,2.9,7.2,4.9l-4.8,5.1
						c-1.6-1.5-3.4-2.7-5.4-3.7C1450.5,1425.8,1443.7,1426.1,1438.1,1429.1z"/>
				</g>
			</g>
			<g>
				<g>
					<path class="st40" d="M1428.4,1439.9l-6.5-2.6c0.2-0.6,0.5-1.1,0.7-1.7c2.7-5.7,7.1-10,12.2-12.7l3.2,6.2
						c-3.9,2-7.2,5.3-9.2,9.6C1428.7,1439.1,1428.5,1439.5,1428.4,1439.9z"/>
				</g>
			</g>
			<g>
				<g>
					<path class="st41" d="M1420,1445.3c0.2-2.7,0.8-5.3,1.8-7.9l6.5,2.6c-0.8,2-1.2,4-1.4,6L1420,1445.3z"/>
				</g>
			</g>
			<polygon class="st42" points="1439.2,1578.4 1387.3,1578.4 1387.3,1577.3 1438.2,1577.3 1438.2,1557.7 1439.2,1557.7 			"/>
			<polygon class="st42" points="1341.4,1578.4 1273.8,1578.4 1273.8,1577.3 1340.3,1577.3 1340.3,1545.2 1341.4,1545.2 			"/>
			<rect x="1273.8" y="1566.6" class="st38" width="46.5" height="6.2"/>
			<rect x="1387.3" y="1566.6" class="st38" width="27.4" height="6.2"/>
			<rect x="1263.2" y="1365.5" class="st38" width="22.3" height="4.8"/>
			<rect x="1356" y="1383.4" class="st38" width="34.5" height="4.8"/>
			<rect x="1311.4" y="1383.4" class="st38" width="21.1" height="4.8"/>
			<rect x="1263.2" y="1383.4" class="st38" width="41.8" height="4.8"/>
			<rect x="1292.3" y="1365.5" class="st38" width="33" height="4.8"/>
			<rect x="1339.1" y="1383.4" class="st38" width="9.1" height="4.8"/>
			<rect x="1365.9" y="1365.7" class="st38" width="24.6" height="4.8"/>
			<rect x="1399.3" y="1383.4" class="st38" width="21" height="4.8"/>
			<rect x="1333.4" y="1365.7" class="st38" width="26.1" height="4.8"/>
			<path class="st12" d="M1393.9,1673.7h-41.4c-6.9,0-12.6-5.6-12.6-12.6v-41.4c0-6.9,5.6-12.6,12.6-12.6h41.4
				c6.9,0,12.6,5.6,12.6,12.6v41.4C1406.4,1668.1,1400.8,1673.7,1393.9,1673.7z"/>
			<rect x="1370" y="1627.2" class="st43" width="6.3" height="26.5"/>
			
				<rect x="1370" y="1627.2" transform="matrix(-1.836970e-16 1 -1 -1.836970e-16 3013.5784 267.2696)" class="st43" width="6.3" height="26.5"/>
			<g>
				<polygon class="st44" points="1560.8,1532.2 1518,1555.7 1475,1488.1 1527,1470.1 				"/>
			</g>
			<g>
				<polygon class="st45" points="1558,1530.2 1518,1552.2 1477.9,1489 1526.5,1472.1 				"/>
			</g>
			<g>
				<path class="st14" d="M1572.7,1518.4c0,0-7.4-3.6-10.7-5.4c-3.3-1.9-11.7-4.4-12.4-5c-0.7-0.6-24.9-2.1-26.4-3.4
					c-1.5-1.3-2.9,3,3.4,4.3c6.3,1.4,15,4.7,15.5,7.2c0.5,2.5-6.5,3-7.2,5.1c-0.7,2,0.2,1.6,1.2,2c1,0.4,8.2-3.6,11.4-2.4
					c3.2,1.1,8.1-0.4,10.5,0.4c2.4,0.8,14.3,4.8,14.3,4.8L1572.7,1518.4z"/>
			</g>
			<g>
				<path class="st14" d="M1515.9,1547.2c0,0-6.3-5.6-9.3-8c-3-2.4-8.7-9.3-9.5-9.7c-0.8-0.4-11.7-22.7-13.5-23.6
					c-1.8-0.9,1.7-3.9,5.4,1.5c3.7,5.4,10.3,12.3,12.8,11.8c2.5-0.5,0.3-7.3,2-8.7c1.6-1.4,1.6-0.4,2.4,0.3
					c0.8,0.8-0.2,9.2,2.1,11.7c2.3,2.6,2.7,7.8,4.5,9.7c1.7,2,10.1,11.6,10.1,11.6L1515.9,1547.2z"/>
			</g>
			<g>
				<path class="st46" d="M1650.6,1848.1c0,0,1.4,9.4,1.5,10.8c0.2,1.4,15-0.8,15-0.8l1.2-11.2
					C1668.4,1846.9,1652.5,1846.8,1650.6,1848.1z"/>
			</g>
			<g>
				<path class="st44" d="M1652,1857.7c0,0-4.7,5.7-9.3,8.1c-4.6,2.5-11.7,3.4-14.4,6c-1.9,1.8-7.1,9.8,11.8,9.6
					c18.9-0.2,28.1,1.1,30.1-1.9s-2.9-22.5-2.9-22.5S1662.8,1858.7,1652,1857.7z"/>
			</g>
			<g>
				<path class="st46" d="M1544,1848.1c0,0,1.4,9.4,1.5,10.8c0.2,1.4,15-0.8,15-0.8l1.2-11.2
					C1561.7,1846.9,1545.8,1846.8,1544,1848.1z"/>
			</g>
			<g>
				<path class="st44" d="M1545.3,1857.7c0,0-4.7,5.7-9.3,8.1c-4.6,2.5-21.3,4.5-24,7c-1.9,1.8-5.2,9.3,21.5,8.6
					c18.9-0.5,28.1,1.1,30.1-1.9s-2.9-22.5-2.9-22.5S1556.4,1858.8,1545.3,1857.7z"/>
			</g>
			<g>
				<path class="st44" d="M1638.3,1606.8c0,0,14,22.2,12.9,42.3c-1,20.1,5.1,42,7.2,63c2.3,23.4,11.9,78.8,12.3,91.3
					c0.3,12.5-1.5,52.5-1.5,52.5l-19.2,0.4c0,0-16.1-96.8-20.3-106.7c-4.2-9.9-24.9-80.3-25.6-88.2
					C1603.4,1653.5,1638.3,1606.8,1638.3,1606.8z"/>
			</g>
			<g>
				<path class="st44" d="M1564.7,1609.8c0,0-10.5,55-11.9,67.3c-1.4,12.3-2.3,59.5-3,67.2c-0.7,7.7-4.6,100.5-8.3,111.9h24.5
					c0,0,18.8-67.5,18.8-99.4c0-31.9,14.5-69.4,23.9-90.5c9.4-21.1,30.9-21.6,36.6-60.7C1645.3,1605.7,1572.5,1597.4,1564.7,1609.8z
					"/>
			</g>
			<g>
				<path class="st14" d="M1614.9,1420c0,0-18.8-7-27.4,7.3c-8.7,14.3-7.8,42.9,1.6,46.4c9.5,3.5,23.7,1.7,28.5-7.3
					c4.8-8.9,9.2-21.9,9-30.5S1619.9,1422.5,1614.9,1420z"/>
			</g>
			<g>
				<path class="st14" d="M1591.2,1474.4c0,0,0.8,5.1-0.5,7.6c-1.3,2.5,24.3,2.6,24.3,2.6s2.1-13.6,6-25
					C1625,1448,1591.2,1474.4,1591.2,1474.4z"/>
			</g>
			<g>
				<path class="st47" d="M1621,1459.5c0,0-1.8,2.9-9,1.8c-7.2-1.1-16-10.7-19-11.8c-3-1.1-3-2.8-3-2.8l-1.9,2.8l-3.2,0.2
					c0,0,2.9-8.6-1.5-12.1c-4.4-3.5,4.6-27.8,27.7-19.7c0,0,17.8,4.9,17.1,15C1627.6,1442.9,1625,1454.4,1621,1459.5z"/>
			</g>
			<g>
				<path class="st45" d="M1589.2,1481.6c0,0,0.1-4.8,2.2-5.2c2.2-0.5,23.9-2.5,26.5-1.5v5.6
					C1617.9,1480.5,1612.8,1483.6,1589.2,1481.6z"/>
			</g>
			<g>
				<path class="st14" d="M1590.4,1443c0.4-1.7,4.7-6.5,6.4-1.4c1.7,5.2-2.5,12.2-4.8,11.6C1589.7,1452.6,1589.4,1447.3,1590.4,1443
					z"/>
			</g>
			<g>
				<path class="st48" d="M1503,1538C1503,1538,1503.1,1538,1503,1538C1502.9,1538.1,1502.9,1538.1,1503,1538z"/>
			</g>
			<g>
				<path class="st24" d="M1655.2,1659.4c0,0-12.7,3.8-32.3,5.9c-19.6,2.2-68.7-0.8-69-3.1c-0.3-2.3,10.5-86.3,9.9-90.7
					c-0.6-4.3-0.9-19.7-0.9-19.7c-0.2,4.2-4.5,21.5-9.7,30.9c-1.9,3.4-8.2,14.1-11.2,11.6c-14.7-11.7-37.4-55.9-38.9-56.3
					c1.2-0.5,10.8-4.9,12.1-5.4c1.2-0.4,11.8,10.8,18.2,17.8c2.9,3.1,4.9,5.4,4.9,5.4c1.9-4.2,8.6-30.5,10.7-39.6
					c4.7-20.5,4-21.4,4-21.4c14.4-4.3,36.2-13.2,36.2-13.2l28.8-1.2c0,0,26.4,5.8,36.8,10.5c1,0.4,1,23.5,3.7,29.6l-8.6,18.2
					c0,0-5,36-6,52C1643.3,1598.1,1655.2,1659.4,1655.2,1659.4z"/>
			</g>
			<g>
				<path class="st24" d="M1659.6,1550.6c-0.8,2.4-4.2,4.5-6.4,5.4c-1.4,0.6-3,0.8-4.6,0.5l-1.1-0.2v0l-19.7-3.7
					c0,0-4.3-49.7,26.9-61.6C1655.5,1491.2,1666.5,1528.3,1659.6,1550.6z"/>
			</g>
			<g>
				<path class="st49" d="M1653.2,1555.9C1653.2,1555.9,1653.2,1555.9,1653.2,1555.9c-1.4,0.6-3,0.8-4.6,0.5l-1.1-0.2v0l1.9-25.4
					L1653.2,1555.9z"/>
			</g>
			<g>
				<path class="st49" d="M1538.3,1555.7l-2.4,10.2c0,0-2.6-10.2-2.5-15.6C1536.3,1553.5,1538.3,1555.7,1538.3,1555.7z"/>
			</g>
			<g>
				<path class="st47" d="M1620.3,1421.7c0,0,24.6-3.1,0.4,38L1620.3,1421.7z"/>
			</g>
			<g>
				<polygon class="st44" points="1494.8,1484.5 1492.3,1480.2 1512,1473.4 1514.5,1477.7 				"/>
			</g>
		</g>
		<rect x="1120.3" y="1476" class="st50" width="7.9" height="357.8"/>
		<rect x="943.4" y="1476" class="st50" width="7.9" height="357.8"/>
		<path class="st51" d="M1139.2,1774.8H927.4c-13,0-23.6-10.6-23.6-23.6v-401c0-13,10.6-23.6,23.6-23.6h211.8
			c13,0,23.6,10.6,23.6,23.6v401C1162.8,1764.2,1152.2,1774.8,1139.2,1774.8z"/>
		<path class="st12" d="M1132.4,1757.3H934.2c-12.9,0-23.3-10.5-23.3-23.3v-376.8c0-12.9,10.5-23.3,23.3-23.3h198.1
			c12.9,0,23.3,10.5,23.3,23.3v376.8C1155.7,1746.8,1145.3,1757.3,1132.4,1757.3z"/>
		<rect x="994.7" y="1323.1" class="st50" width="77.2" height="17.4"/>
		<g>
			<g>
				<path class="st52" d="M1029.6,1532l-5.1-13.5c-5.1-0.6-10.1-1.8-15-3.4l-10.5,9.9l-29.4-20.9l5.9-13.1c-3.2-4-5.9-8.4-8.2-13
					l-14.4-0.5l-6-35.6l13.5-5.1c0.6-5.1,1.8-10.1,3.4-15l-9.9-10.5l20.9-29.4l13.1,5.9c4-3.2,8.4-5.9,13-8.2l0.5-14.4l35.6-6
					l5.1,13.5c5.1,0.6,10.1,1.8,15,3.4l10.5-9.9l29.4,20.9l-5.9,13.1c3.2,4,5.9,8.4,8.2,13l14.4,0.5l6,35.6l-13.5,5.1
					c-0.6,5.1-1.8,10.1-3.4,15l9.9,10.5l-20.9,29.4l-13.1-5.9c-4,3.2-8.4,5.9-13,8.2l-0.5,14.4L1029.6,1532z M1007.6,1505.9l2.3,0.9
					c5.7,2.2,11.6,3.5,17.7,4.1l2.5,0.2l4.6,12l22.7-3.8l0.4-12.8l2.3-1c5.6-2.5,10.8-5.7,15.4-9.6l1.9-1.6l11.7,5.2l13.3-18.7
					l-8.8-9.3l0.9-2.3c2.2-5.7,3.5-11.6,4.1-17.7l0.2-2.5l12-4.6l-3.8-22.7l-12.8-0.4l-1-2.3c-2.5-5.6-5.7-10.8-9.6-15.4l-1.6-1.9
					l5.2-11.7l-18.7-13.3l-9.3,8.8l-2.3-0.9c-5.7-2.2-11.6-3.5-17.7-4.1l-2.5-0.2l-4.6-12l-22.7,3.8l-0.4,12.8l-2.3,1
					c-5.6,2.5-10.8,5.7-15.4,9.6l-1.9,1.6l-11.7-5.2l-13.3,18.7l8.8,9.3l-0.9,2.3c-2.2,5.7-3.5,11.6-4.1,17.7l-0.2,2.5l-12,4.6
					l3.8,22.7l12.8,0.4l1,2.3c2.5,5.6,5.7,10.8,9.6,15.4l1.6,1.9l-5.2,11.7l18.7,13.3L1007.6,1505.9z"/>
			</g>
			<g>
				<path class="st52" d="M1010.1,1478.4l-0.1-0.1c-10.6-7.5-16.9-19.8-16.9-32.8c0-8.4,2.6-16.4,7.4-23.3l6.5,4.6
					c-3.9,5.5-6,11.9-6,18.6c0,10.4,5.1,20.2,13.5,26.3L1010.1,1478.4z M1066.1,1468.8l-6.5-4.6c3.9-5.5,5.9-11.9,5.9-18.6
					c0-10.4-5.1-20.2-13.5-26.3l4.6-6.6l0,0c10.6,7.5,16.9,19.8,16.9,32.8C1073.5,1454,1070.9,1462,1066.1,1468.8z"/>
			</g>
		</g>
		<g>
			<path class="st52" d="M1084.4,1612.7l-2.9-7.5c-2-0.3-4-0.8-6-1.4l-5.8,5.5l-17.9-12.8l3.2-7.3c-1.2-1.7-2.3-3.4-3.3-5.2l-8-0.3
				l-3.7-21.7l7.5-2.9c0.3-2,0.8-4,1.4-6l-5.5-5.8l12.8-17.9l7.3,3.3c1.7-1.2,3.4-2.3,5.2-3.3l0.3-8l21.7-3.7l2.9,7.4
				c2,0.3,4,0.8,6,1.4l5.8-5.5l17.9,12.8l-3.2,7.3c1.2,1.7,2.3,3.4,3.3,5.2l8,0.3l3.7,21.7l-7.5,2.8c-0.3,2-0.8,4-1.4,6l5.5,5.8
				l-12.8,17.9l-7.3-3.3c-1.7,1.2-3.4,2.3-5.2,3.3l-0.3,8L1084.4,1612.7z M1073.6,1594.7l2.3,0.9c2.8,1.1,5.8,1.8,8.8,2l2.5,0.2
				l2.3,5.9l8.8-1.5l0.2-6.3l2.3-1c2.8-1.2,5.3-2.8,7.6-4.8l1.9-1.6l5.8,2.6l5.2-7.3l-4.3-4.6l0.9-2.3c1.1-2.8,1.7-5.8,2-8.8
				l0.2-2.5l5.9-2.3l-1.5-8.8l-6.3-0.2l-1-2.3c-1.2-2.8-2.8-5.3-4.8-7.6l-1.6-1.9l2.6-5.8l-7.3-5.2l-4.6,4.3l-2.3-0.9
				c-2.8-1.1-5.8-1.7-8.8-2l-2.5-0.2l-2.3-5.9l-8.8,1.5l-0.2,6.3l-2.3,1c-2.8,1.2-5.3,2.8-7.6,4.8l-1.9,1.6l-5.8-2.6l-5.2,7.3
				l4.3,4.6l-0.9,2.3c-1.1,2.8-1.7,5.8-2,8.8l-0.2,2.5l-5.9,2.3l1.5,8.8l6.3,0.2l1,2.3c1.2,2.8,2.8,5.3,4.8,7.6l1.6,1.9l-2.6,5.8
				l7.3,5.2L1073.6,1594.7z M1087.5,1588.2c-4.6,0-9.3-1.4-13.3-4.2c-10.3-7.3-12.7-21.7-5.4-32c3.6-5,8.8-8.3,14.9-9.3
				c6-1,12.1,0.4,17.1,3.9c5,3.6,8.3,8.8,9.3,14.9c1,6-0.4,12.1-3.9,17.1C1101.8,1584.9,1094.7,1588.2,1087.5,1588.2z
				 M1087.6,1550.3c-0.8,0-1.7,0.1-2.5,0.2c-3.9,0.7-7.4,2.8-9.7,6.1c-4.8,6.7-3.2,16.1,3.5,20.9c6.7,4.8,16.1,3.2,20.9-3.5
				c4.8-6.7,3.2-16.1-3.5-20.9C1093.6,1551.3,1090.6,1550.3,1087.6,1550.3z"/>
		</g>
		<g>
			<g>
				<path class="st53" d="M837.6,1858.2c0,0,7.4,7.8,15,9.4c7.5,1.6,12.8,3.7,12.9,8.2c0.1,4.5-21.7,7.4-30.4,2.9
					c-12.9-6.7-14.2-4.7-15.6-8.1c-1.4-3.4,1.7-12.4,1.6-13.5C821,1855.9,837.6,1858.2,837.6,1858.2z"/>
			</g>
			<g>
				<path class="st54" d="M836.8,1854.5c0,0,1,3.7,0.8,3.7c-0.1,0.1-17,2-16.5-1c0.4-2.4,1-5,1-5L836.8,1854.5z"/>
			</g>
			<g>
				<path class="st53" d="M753.6,1860.2c0,0,5.5,7.6,12.8,9.4c7.2,1.7,11.9,5,12.2,9.4c0.4,4.4-17,10.1-29.2,2.4
					c-8-5-11-4.7-12.6-7.9c-1.6-3.2,0.8-12.1,0.7-13.2C737.3,1859,753.6,1860.2,753.6,1860.2z"/>
			</g>
			<g>
				<path class="st54" d="M753.4,1856.5c0,0,0.4,3.7,0.2,3.8c-0.1,0.1-16.2,2.9-16.1,0c0.1-2.3,1-5.2,1-5.2L753.4,1856.5z"/>
			</g>
			<g>
				<path class="st48" d="M819.8,1634.8c0,0,7.8,56.7,11,75.9c3.7,22.4,5,41,6,52.6c1.3,14.6,0.6,89.3,1.5,93.6
					c0.9,4.3-18.5,2-18.5,2s-14.2-97.4-18.1-112.9c-3.6-14.5-13.6-74.2-16.9-70.2c-3.3,4-14,71.9-16.5,83.4
					c-2.5,11.4-12.4,101.3-12.4,101.3s-16.5,3.6-21,0c0,0,1-80.1,2.6-101.5c0.6-8.2-5.2-97.7,8.6-133.7
					C753.5,1606,819.8,1634.8,819.8,1634.8z"/>
			</g>
			<path class="st55" d="M820.5,1637.5l0.9,8.5c0,0-23.8,9.6-81.7,9.6v-9.7L820.5,1637.5z"/>
			<g>
				<g>
					<g>
						<path class="st14" d="M887.2,1530.3c0,0,3.5,7.7,5.5,8.1c2.1,0.5,4.5,3,6.3,3.8c1.8,0.8,7.3,1.2,8.8,2.7
							c0.6,0.6,2.9,5.7,4.3,6.8c1.4,1.1,4.4,2.9,3.5,4.1c-0.9,1.1-4.1,0.2-4.1,0.2s1.2,1.1,0.7,2.3c-1,2.5-2.6,2.6-2.6,2.6
							s0.5,1.9-0.1,2.8c-1.5,2-3.1,2.1-3.1,2.1s-0.1,1.4-1.4,2.5c-1.6,1.4-3.7,0.6-3.7,0.6s-1.7,2.3-3.2,1.8
							c-1.5-0.4-2.4-1.6-3.5-2.2c-1.1-0.7-8.7-9.4-11.5-17.6c-2.8-8.2-7.6-14.8-7.6-14.8L887.2,1530.3z"/>
					</g>
				</g>
			</g>
			<g>
				<path class="st24" d="M885.6,1569c0,0-26.9,12.2-36.5,9.9c-4.4-1.1-10.2-7.2-15.8-14.4c-1.8-2.4-3.6-4.8-5.3-7.3c0,0,0,0,0,0
					c-6.8-9.8-12.1-19.2-12.1-19.2s-20.1-23.5-4-34c0,0,5.8-2.2,11.2,3.6c5.4,5.8,11.7,17.8,13.1,20.9c1.4,3.1,21.1,31.5,22.1,32.1
					c1,0.6,9.6-1.6,16.5-2.2c11.3-0.9,9-1.4,9-1.4L885.6,1569z"/>
			</g>
			<path class="st24" d="M796.9,1498.7c0,0,20.7,4.3,23.1,6.4c2.7,2.3,7.4,24.9,7.6,31.3c0.3,6.3-2.5,32.6-5.2,42.5
				c-2.7,9.8,3.5,51.6-1.4,58.4c0,0-42.6,13.7-83.5,8.3c0,0,8.8-39.4,7.1-52.8c-2.1-17.2-7.1-56.9-7.1-56.9s5.5-26.7,9.1-29.8
				c3.6-3.1,29-8.1,29-8.1L796.9,1498.7z"/>
			<path class="st56" d="M750.8,1552.6c0,0-3.9,25.4-3.6,27C747.5,1581.3,729.5,1574.6,750.8,1552.6z"/>
			<g>
				<path class="st57" d="M660.8,1692.5l-18-29.8c-3-5-1.4-11.6,3.6-14.6l45-27.1c5-3,11.6-1.4,14.6,3.6l18,29.8
					c3,5,1.4,11.6-3.6,14.6l-45,27.1C670.4,1699.2,663.8,1697.6,660.8,1692.5z"/>
				
					<rect x="808" y="1386.1" transform="matrix(0.5161 0.8565 -0.8565 0.5161 1746.368 39.6322)" class="st58" width="60.2" height="358.6"/>
				
					<rect x="648.5" y="1538.2" transform="matrix(0.8565 -0.5161 0.5161 0.8565 -680.2286 649.2811)" class="st40" width="358.6" height="20.1"/>
				
					<rect x="828.1" y="1386.1" transform="matrix(0.516 0.8566 -0.8566 0.516 1746.442 39.6762)" class="st41" width="20.1" height="358.6"/>
				
					<rect x="838.4" y="1403.2" transform="matrix(0.5161 0.8565 -0.8565 0.5161 1766.0497 39.0578)" class="st38" width="20.1" height="358.6"/>
				<polygon class="st59" points="1007.2,1498.6 976.2,1447.1 1045.9,1433 1063.8,1429.4 1052.2,1443.5 				"/>
				<path class="st60" d="M986.5,1464.2c-4.6,2.8-10.6,1.2-13.5-3.6c-2.9-4.7-1.4-10.8,3.2-13.6L986.5,1464.2z"/>
				<path class="st61" d="M996.9,1481.4c-4.6,2.8-10.6,1.2-13.5-3.6c-2.9-4.7-1.4-10.8,3.2-13.6L996.9,1481.4z"/>
				<path class="st59" d="M1007.2,1498.6c-4.6,2.8-10.6,1.2-13.5-3.6c-2.9-4.7-1.4-10.8,3.2-13.6L1007.2,1498.6z"/>
				
					<rect x="662" y="1631.4" transform="matrix(0.8565 -0.5161 0.5161 0.8565 -750.5219 582.8173)" class="st62" width="22" height="20.1"/>
				
					<rect x="673.4" y="1647.5" transform="matrix(0.5161 0.8565 -0.8565 0.5161 1751.3151 217.2197)" class="st63" width="20.1" height="22"/>
				
					<rect x="683.7" y="1664.7" transform="matrix(0.5161 0.8565 -0.8565 0.5161 1771.0254 216.661)" class="st64" width="20.1" height="22"/>
				<polygon class="st60" points="986.5,1464.2 1063.8,1429.4 976.2,1447.1 				"/>
				<polygon class="st61" points="996.9,1481.4 1063.8,1429.4 986.5,1464.2 				"/>
				<polygon class="st59" points="996.9,1481.4 1063.8,1429.4 1007.2,1498.6 				"/>
				<polygon class="st38" points="1052.2,1443.5 1045.9,1433 1063.8,1429.4 				"/>
			</g>
			<g>
				<g>
					<g>
						<g>
							<g>
								<path class="st14" d="M793.2,1638c0,0-1.9-0.2-2.7-0.6c0,0-1.4-1-2.4-1.6c-0.3-0.2-0.6-0.4-0.8-0.5
									c-0.8-0.4-2.8-0.9-4.5-2.4c-1.7-1.5-7.6-9.6-7.6-9.6l3.5-4.4l2.7-4.6c0,0,13.7,2.1,15.5,3.3c0.2,0.1,0.3,0.2,0.5,0.4
									c1.4,1.1,2,2.6,2.7,3.2c0.2,0.3,2.5,2.9,2.3,3.9c-0.2,1.4-1,2.3-1.9,2.7c0,0-0.6,2.8-2.1,4c0,0-0.5,2.6-2.8,3.5
									C795.5,1635.2,794.8,1637.8,793.2,1638z"/>
							</g>
						</g>
					</g>
				</g>
			</g>
			<path class="st24" d="M758,1505.6c2.7,1,5.6,7.6,3.4,20.5c-2.3,13.8-6.8,19.7-8.7,22.9c-1.8,3.2-11.9,23.1-10.1,25.7
				c1.8,2.6,18.9,19.5,19.9,20.9c1,1.4,20.1,18.7,20.1,18.7l-9.7,13.6c0,0-41.2-32.2-44.4-35.4c-3.2-3.2-12.8-10-9.3-21.2
				c3.6-11.4,10.1-38.1,11.3-40.2C731.7,1528.8,740.1,1498.6,758,1505.6z"/>
			<g>
				<g>
					<path class="st14" d="M911,1555c0,0-6.6-7.4-9.9-7.2c-3.3,0.1-1.1,2.9-1.1,2.9s-2.2-2.8-4.5-1.3c-2.3,1.5,0.4,4.6,0.4,4.6
						s-2.2-1.7-3.9,0.6c-1.7,2.3,1.2,4.4,1.2,4.4s-4.4-0.6-3.4,2.9c1.6,6,8.1,8.9,8.1,8.9s1.9,0.7,3.4-1.6c0,0,4.1,1.5,5.2-3.2
						c0,0,4.9-1.1,3.4-5C909.8,1561,914.8,1559.1,911,1555z"/>
				</g>
			</g>
			<path class="st24" d="M806.2,1500.8c0,0,1.2-5.7-16.5-7c-17.7-1.3-29.7,2.7-30,7.7c-0.3,5.1,44.8,17.8,44.8,17.8L806.2,1500.8z"
				/>
			<path class="st14" d="M788.3,1434.8c0,0,24.9-9.2,23.3,23.8c-1.6,33-7.4,36.4-23.7,31.8c-16.4-4.6-17.7-25.5-19.9-35.5
				C765.9,1444.9,780.2,1436.3,788.3,1434.8z"/>
			<path class="st14" d="M801,1504c0,0-6,2.6-25.4-5.9c0,0,0.5-13.3-3.3-25.7c-3.8-12.4,26,16.6,26,16.6c-0.3,0.2-0.4,1.5-0.2,3.2
				c0.2,1.5,0.5,3.3,1,5.1C800.2,1501.4,800,1500.6,801,1504z"/>
			<path class="st65" d="M771.5,1471.3c0,0-0.1-8.8,3.6-9.6c3.7-0.8,5.6,4.3,5.6,4.3l3-0.2c0,0-2.6-8.9,0.9-11
				c3.5-2.1,24.4-0.2,27.1-3.3c2.6-3-1.2-20.9-6.9-22.6c-5.7-1.8-21.3-5.3-31.2,3.5c0,0-8.5,3.7-8.9,10.7
				C764.2,1450.1,768.5,1466.6,771.5,1471.3z"/>
			<path class="st66" d="M799.1,1497.2c-19.3-3.2-22.1-14.2-22.2-14.4c7.5,9.7,21.2,9.2,21.2,9.2
				C798.3,1493.5,798.7,1495.4,799.1,1497.2z"/>
			<path class="st14" d="M779.3,1458c-1.1-2.9-7.3-2.5-6.7,2.1c0.6,4.6,5.8,11.7,7.8,10.4C782.5,1469.1,780.8,1462,779.3,1458z"/>
		</g>
		<g>
			<g>
				<g>
					<path class="st35" d="M1614.5,530c0,0,10.2,17.4,14.6,20.2c5.9,3.9,2.2,7.7-0.6,7.7c-2.8,0-17,1-20.2-2.5
						c-3.1-3.6-4.7-14.2-7.6-17c-2.9-2.8-5.9-13.9,1.4-16.6C1608.6,519.4,1614.5,530,1614.5,530z"/>
				</g>
			</g>
			<g>
				<g>
					<path class="st67" d="M1610.1,522.3c0,0,11.7,20.3,13.8,23.3c2,3-3.8,3-7.4,1.6c-3.6-1.4-12.7-16-14-18.7
						c-1.6-3.2-0.3-6.8-0.3-6.8L1610.1,522.3z"/>
				</g>
			</g>
			<g>
				<g>
					<polygon class="st35" points="1598.2,533.3 1600.9,554.1 1602.3,554.2 1601.9,539.2 					"/>
				</g>
			</g>
			<g>
				<g>
					<path class="st35" d="M1512.9,530c0,0,10.2,17.4,14.6,20.2c5.9,3.9,2.2,7.7-0.6,7.7c-2.8,0-17,1-20.2-2.5
						c-3.1-3.6-4.7-14.2-7.6-17c-2.9-2.8-6-14.2,1.4-16.6C1507.1,519.7,1512.9,530,1512.9,530z"/>
				</g>
			</g>
			<g>
				<g>
					<path class="st67" d="M1509.1,522.4c0,0,11.1,20.3,13.1,23.3c2,3-3.8,3-7.4,1.6c-3.6-1.4-12.7-16-14-18.7
						c-1.6-3.2-0.3-6.8-0.3-6.8L1509.1,522.4z"/>
				</g>
			</g>
			<g>
				<g>
					<polygon class="st35" points="1496.6,533.3 1499.3,554.1 1500.7,554.2 1500.3,539.2 					"/>
				</g>
			</g>
			<g>
				<g>
					<path class="st67" d="M1467.5,371.9l92.7,42.2c0,0,10.3,3.4,11.5,14.9c3.6,35.9,30.5,92.8,30.5,92.8c8.6,4.2,8,0.6,8,0.6
						c-5.4-17.4-12-89.2-14.4-118c-0.5-6.1-0.8-10.3-0.9-11.6c0-0.9-1-2.1-2.8-3.5c-12.7-10.3-65.1-31.7-65.1-31.7
						C1487.7,356.5,1467.5,371.9,1467.5,371.9z"/>
				</g>
			</g>
			<g>
				<g>
					<path class="st67" d="M1450,390c2.9,25.1,38.6,22.2,38.6,22.2h43.4c0,0-11.4,25.3-15.8,46.7c-4.7,22.7-15.7,62.8-15.7,62.8
						s0.7,1.4,8.6,0.6c0,0,34-67.8,47.1-84.9c2.8-3.7,10.8-23.6,12.2-35.5c0.5-4,0.2-7.1-1.3-8.3c-1.5-1.3-5-3.6-9.6-6.5
						c-13.6-8.6-37.2-21.7-50.3-24.7c-17.6-4-45.4-11.4-45.4-11.4S1447.1,365,1450,390z"/>
				</g>
			</g>
			<path class="st68" d="M1479.5,197c0,0-6.5-12.3-3.3-25.4c3.2-13.1,15.3-26.2,33.2-20.2c17.8,6,32.2,19.9,21.6,35.9
				c-10.7,16,9.7,23.2,4.5,30.9c-5.2,7.6-3.2,15.6-1,17.3c2.2,1.8,9.3,8.1,8.5,15.6c-0.8,7.5-34.6-21.8-34.6-21.8
				S1489.8,192.2,1479.5,197z"/>
			<path class="st58" d="M1533.8,354.5c0,0-2.7,13-71.9-3.4C1461.9,351,1485.1,343.3,1533.8,354.5z"/>
			<g>
				<path class="st69" d="M1461.1,354.7c-1.1,2-2.1,4.1-3.2,6.1c25.3,0.7,50.6,1.5,75.9,2.2c-4-13.4-2.7-31.6-2-45.3
					c0.9-16.8,10.2-28.5,9.2-45.6c5,0.8,5.9,1,10.9,1.7c-7.7-21.9-10.3-32.7-34.1-41.1c-7.8-2.7-12.9-3.3-21.3-2.6
					c-27.6,2.3-35.9,2.6-49.5,27.6c21.2,3.4,17.7,11,24.2,32.1c3.1,10.3,6.4,21.8,4.7,32.6C1474.3,333.2,1461.1,345,1461.1,354.7z"
					/>
			</g>
			<g>
				<path class="st14" d="M1505.1,238.1c-11.3-2.1-8.9-8.4-8.9-8.4s0.5-3.5,0.7-8c0.1-1.1,0.1-2.4,0.1-3.6c0-1.9-0.1-3.8-0.3-5.6
					c-0.9-7.6,20.5-3.1,20.5-3.1s-1.2,15.3,1.7,19.9C1521.9,234,1516.4,240.2,1505.1,238.1z"/>
			</g>
			<g>
				<path class="st14" d="M1483.6,229.6c0,0,22.8,26.3,31.2,32.4c0,0,9.7-8.7,3.7-31.8C1518.5,230.2,1507.5,224.7,1483.6,229.6z"/>
			</g>
			<path class="st14" d="M1484.2,166.3c0,0-11.8,22.8-0.1,44.4c11.7,21.6,34.8-9.4,36.3-13c1.5-3.6,9.4-24.2-6.3-30.5
				C1498.3,161,1487.6,160.1,1484.2,166.3z"/>
			<path class="st68" d="M1488.1,174.4c0,0-8.1,10.7-9.1,18.6c0,0-3.2-14.9,5.9-29.3c9.2-14.4,32.5-0.7,35.6,5.1
				c3.1,5.7,12.3,10.8-3.1,35.4C1517.5,204.2,1489.8,185,1488.1,174.4z"/>
			<path class="st25" d="M1507.1,213c0,0-2.1,4.5-10.1,8.7c0.1-1.1,0.1-2.4,0.1-3.6C1497.1,218,1502.5,217.4,1507.1,213z"/>
			<path class="st70" d="M1387.5,334.2c0,0-5.6,2.5-8.3,1.4c-2.7-1.1-6.8-1.4-8.1-1.4c-1.7,0-7.2-1.9-7.1,0.2
				c0.1,2.1,8.8,3.6,10.6,4.3c1.8,0.7-5.4,4.6-6,6.3c-0.7,1.7,7.4,13.2,11.9,9.9c4.5-3.3,7-9.8,7.9-10.2c0.9-0.4,3.4-2.2,3.4-2.2
				L1387.5,334.2z"/>
			<path class="st70" d="M1369.5,344c0,0-13.2,10.9-13.4,12.4c-0.2,1.5,0.5,2.2,1.8,1.2c1.3-1,13.1-10.2,13.1-10.2
				s-13.2,15.6-13.7,16.8c-0.3,0.7,1,2.1,1.7,1.6c0.7-0.5,14.8-15.2,14.8-15.2s-12.3,14.6-12.4,15.7c-0.1,1,1.4,2,2.4,1
				c1-1,13.2-13.9,13.2-13.9s-8.2,11.2-7.7,12.2c0.3,0.6,1.3,1.9,3.4-1.1s7.6-9.4,7.6-9.4L1369.5,344z"/>
			<g>
				<path class="st53" d="M1527.5,412.2h-38.8c0,0-35.8,2.9-38.6-22.2c-2.9-25.1,11.8-39,11.8-39s18.9,5,35.4,9
					c8.3-1.8,18.2-2.9,29.8-2.6c0,0,69.9,23.1,67.8,35.3C1594.8,392.7,1565.6,377.1,1527.5,412.2z"/>
			</g>
			<polygon class="st71" points="1502.2,368.8 1576.2,367.7 1538.8,386.7 			"/>
			<path class="st69" d="M1525.2,359.4c0,0-16.7,6.5-37.1,0.6l-1-7.6l42,2.3L1525.2,359.4z"/>
			<polygon class="st72" points="1538.8,386.7 1502.2,372.5 1502.2,368.8 1541.7,383.1 			"/>
			<g>
				<path class="st73" d="M1524.9,362.9c-0.2,2.7,2.6,4.7,5.1,3.6l4.3-1.8c1.3-0.6,2-1.9,1.8-3.3c-1.8-11.2-5.6-54.8,0-62.3
					c2.1-2.8,3.4-5.2,4.1-7.3c3.7,9.6,8.3,21.9,10.1,28.5l35,46.5l11.7,3c-14.6-35.3-26.4-53.9-26.4-53.9
					c-2.3-6.1-8.9-24.8-14.7-41.3c-3.7-10.5-7-20.1-8.9-25.3c-0.9-2.6-2.7-4.8-5.1-6.3c-5.4-3.2-14.4-8.3-22.6-12.3c0,0-0.1,0-0.1,0
					c-0.3-0.1-0.5-0.3-0.8-0.4c0,0,0,0,0,0c0,0,0,0,0,0C1534.1,253.7,1528,320.3,1524.9,362.9
					C1524.9,362.8,1524.9,362.9,1524.9,362.9z"/>
				<path class="st73" d="M1467.1,232.2c-5,0.8-17.4,12.8-23.9,24.9c-7.5,13.8-15.1,29.6-20.8,34.8c-10.5,9.5-39.9,43.2-41.3,42.4
					c-0.5-0.3,8.1,10.1,9.2,10.5c0.5,0.2,48.4-41.2,53-47.5c4.4-6,16-31.1,19.5-30.6c0,0,0,0,0,0c0,0,0,0,0,0
					c0.3,0.6,4.5,9.8,8.5,23.2c0.1,0.2,0.1,0.4,0.2,0.7c2.8,9.4,2.5,19.5,1,31c-1.1,8.6-7.6,22.7-11.4,29.6
					c-0.5,0.8-0.3,2.4,0.2,3.6c0,0,0,0,0,0c0.3,0.7,0.7,1.3,1.3,1.5l14,5.2l3.3,1.2c2.4,0.9,4.9,0.4,6.7-0.9
					c1.5-1.1,2.6-2.8,2.9-4.9c3.1-24,7.1-48.5,10.2-57.8c13.8-40.6-5.4-71-5.4-71S1471.5,230.6,1467.1,232.2z"/>
			</g>
			<polygon class="st74" points="1538.8,386.7 1560.9,326.6 1631.9,327.7 1610.9,383.2 			"/>
			<path class="st75" d="M1583.6,353.2c-2.2,4.3-1.5,9,1.5,10.5c3,1.5,7.1-0.8,9.3-5.1c2.2-4.3,1.5-9-1.5-10.5
				C1589.9,346.6,1585.7,348.9,1583.6,353.2z"/>
			<path class="st68" d="M1508.7,189c0,0,4.5,7.1,0.3,13.2c-4.2,6.1,1.1,12.1,2,18.6c0.9,6.5-17.5,23.6,3,32.3
				c20.5,8.6,27-5.6,21.8-13.5c-5.2-7.9-9-14.2-9.4-25.4C1526,202.9,1522.3,185.4,1508.7,189z"/>
			<polygon class="st24" points="1356.4,114 1451.3,114 1451.3,182.7 1451.3,197.2 1436.8,182.7 1356.4,182.7 			"/>
		</g>
	</g>
</g>
</svg>
